<svg width="116" height="116" viewBox="0 0 116 116" fill="none" xmlns="http://www.w3.org/2000/svg">
<path d="M33.4019 56.5524V56.5657L22.1632 67.2244H33.4092L44.6624 56.5524H33.4019Z" fill="#C1121F"/>
<path d="M46.8217 56.5524V56.5657L35.583 67.2244H46.8302L58.0822 56.5524H46.8217Z" fill="#C1121F"/>
<path d="M60.5387 56.5524V56.5657L49.3 67.2244H60.5459L71.7992 56.5524H60.5387Z" fill="#C1121F"/>
<path d="M74.0273 56.5524V56.5657L62.7886 67.2244H74.0358L85.2878 56.5524H74.0273Z" fill="#C1121F"/>
<path d="M38.1208 54.4238V23.3551H46.5115V47.6474H58.474V54.4238H38.1208Z" fill="#003049"/>
<path d="M83.7633 44.9891C83.7633 46.9164 83.2727 48.6274 82.294 50.1221C81.3177 51.618 79.9075 52.7793 78.0648 53.607C76.2245 54.4347 74.064 54.8491 71.5833 54.8491C69.5171 54.8491 67.7819 54.7041 66.3778 54.4141C64.9762 54.1241 63.5177 53.6166 62.0037 52.8916V45.4145C63.6011 46.2361 65.2637 46.8778 66.9917 47.3381C68.722 47.7997 70.3097 48.0293 71.7573 48.0293C73.0043 48.0293 73.9178 47.8142 74.4978 47.3816C75.0778 46.9466 75.3678 46.3896 75.3678 45.7093C75.3678 45.2876 75.2494 44.9166 75.015 44.5976C74.783 44.2786 74.4072 43.9572 73.8888 43.631C73.3729 43.3023 71.9954 42.6353 69.7563 41.63C67.7324 40.7116 66.2135 39.8211 65.1985 38.9571C64.1859 38.0908 63.4355 37.0987 62.9462 35.9798C62.4592 34.8621 62.2163 33.5378 62.2163 32.0068C62.2163 29.1455 63.2567 26.9149 65.3387 25.3126C67.4194 23.7116 70.2807 22.9105 73.9227 22.9105C77.138 22.9105 80.4187 23.6548 83.7633 25.1435L81.192 31.625C78.2847 30.291 75.7762 29.624 73.6665 29.624C72.5766 29.624 71.7839 29.8161 71.2885 30.1991C70.7919 30.5834 70.5442 31.0583 70.5442 31.625C70.5442 32.234 70.8583 32.7801 71.4867 33.2635C72.1174 33.7444 73.8284 34.6204 76.6197 35.8928C79.2973 37.0987 81.1557 38.3916 82.1973 39.774C83.2413 41.1539 83.7633 42.8915 83.7633 44.9891Z" fill="#003049"/>
<path d="M22.5558 82.7086L22.1159 81.0411H19.2256L18.7761 82.7086H16.1323L19.0371 73.7717H22.2416L25.1851 82.7086H22.5558ZM21.6181 79.0691L21.2314 77.6094C21.1444 77.2844 21.0357 76.8639 20.9076 76.3479C20.7783 75.8331 20.6949 75.4634 20.6563 75.2411C20.6176 75.4477 20.5451 75.7896 20.4388 76.2657C20.3324 76.7394 20.0932 77.6746 19.7234 79.0691H21.6181Z" fill="#003049"/>
<path d="M30.9128 82.7085L30.618 81.8482H30.4778C30.2773 82.1672 29.9993 82.4113 29.6417 82.578C29.2864 82.7448 28.8708 82.8294 28.3947 82.8294C27.6334 82.8294 27.0425 82.6107 26.6208 82.172C26.1979 81.731 25.9877 81.1087 25.9877 80.3064V75.8114H28.3705V79.5814C28.3705 80.0333 28.4333 80.374 28.559 80.606C28.6871 80.8356 28.8985 80.9492 29.1922 80.9492C29.6006 80.9492 29.893 80.7885 30.067 80.4659C30.241 80.1445 30.328 79.5995 30.328 78.8322V75.8114H32.7108V82.7085H30.9128Z" fill="#003049"/>
<path d="M37.7291 80.9492C38.0481 80.9492 38.4311 80.8706 38.8794 80.7124V82.4475C38.5568 82.5865 38.2511 82.6844 37.9611 82.7424C37.6711 82.8004 37.3303 82.8294 36.9412 82.8294C36.1413 82.8294 35.5649 82.6348 35.2109 82.2445C34.8593 81.8518 34.6841 81.2489 34.6841 80.4369V77.5948H33.8527V76.6282L34.9112 75.879L35.5251 74.429H37.0814V75.8113H38.7731V77.5948H37.0814V80.2822C37.0814 80.7269 37.2965 80.9492 37.7291 80.9492Z" fill="#003049"/>
<path d="M46.6703 79.2431C46.6703 80.3741 46.3658 81.2561 45.7568 81.8869C45.1503 82.5152 44.302 82.8294 43.2097 82.8294C42.162 82.8294 41.3295 82.508 40.7108 81.8627C40.0922 81.2187 39.7828 80.3451 39.7828 79.2431C39.7828 78.1217 40.0849 77.2505 40.6915 76.6282C41.3005 76.0035 42.1524 75.6906 43.2483 75.6906C43.925 75.6906 44.5219 75.8356 45.0415 76.1256C45.5635 76.4131 45.9647 76.8252 46.245 77.3629C46.5278 77.9018 46.6703 78.5277 46.6703 79.2431ZM42.1995 79.2431C42.1995 79.8363 42.278 80.2895 42.4363 80.6012C42.5934 80.9106 42.8593 81.0652 43.2338 81.0652C43.6036 81.0652 43.8646 80.9106 44.0168 80.6012C44.1679 80.2895 44.244 79.8363 44.244 79.2431C44.244 78.657 44.1667 78.2136 44.012 77.9139C43.8598 77.6142 43.5975 77.4644 43.2242 77.4644C42.8568 77.4644 42.5934 77.6142 42.4363 77.9139C42.278 78.2111 42.1995 78.6534 42.1995 79.2431Z" fill="#003049"/>
<path d="M57.22 80.0067C57.22 80.5577 57.0798 81.0483 56.7995 81.4761C56.5192 81.905 56.1144 82.2385 55.5863 82.4766C55.0607 82.711 54.442 82.8294 53.7303 82.8294C53.137 82.8294 52.6392 82.7883 52.2368 82.7086C51.8369 82.6252 51.42 82.479 50.985 82.2687V80.1276C51.4454 80.3632 51.9227 80.5469 52.4157 80.6786C52.9111 80.8115 53.3654 80.8767 53.7787 80.8767C54.1363 80.8767 54.3973 80.8163 54.5617 80.6931C54.7284 80.5674 54.813 80.4079 54.813 80.2146C54.813 80.0925 54.7792 79.9862 54.7115 79.8956C54.6462 79.8025 54.5399 79.7095 54.3925 79.6152C54.2439 79.5222 53.8487 79.3325 53.2083 79.0449C52.6283 78.7815 52.1933 78.5253 51.9033 78.2764C51.6133 78.0287 51.397 77.7447 51.2557 77.4257C51.1167 77.1043 51.0478 76.7237 51.0478 76.2851C51.0478 75.467 51.3451 74.829 51.942 74.3711C52.5377 73.9107 53.3582 73.6799 54.4022 73.6799C55.3229 73.6799 56.263 73.895 57.22 74.3227L56.4805 76.1787C55.6492 75.7957 54.9314 75.6036 54.3297 75.6036C54.0167 75.6036 53.7895 75.6592 53.6482 75.7679C53.5056 75.8779 53.4355 76.0144 53.4355 76.1787C53.4355 76.3527 53.5249 76.5098 53.7062 76.6476C53.8862 76.7865 54.3756 77.0379 55.1755 77.4016C55.9416 77.7472 56.4732 78.1169 56.7705 78.5132C57.0702 78.9096 57.22 79.4074 57.22 80.0067Z" fill="#003049"/>
<path d="M65.0407 79.2431C65.0407 80.3741 64.7362 81.2561 64.1272 81.8869C63.5206 82.5152 62.6724 82.8294 61.58 82.8294C60.5324 82.8294 59.6999 82.508 59.0812 81.8627C58.4625 81.2187 58.1532 80.3451 58.1532 79.2431C58.1532 78.1217 58.4553 77.2505 59.0619 76.6282C59.6709 76.0035 60.5227 75.6906 61.6187 75.6906C62.2954 75.6906 62.8923 75.8356 63.4119 76.1256C63.9339 76.4131 64.335 76.8252 64.6154 77.3629C64.8981 77.9018 65.0407 78.5277 65.0407 79.2431ZM60.5699 79.2431C60.5699 79.8363 60.6484 80.2895 60.8067 80.6012C60.9638 80.9106 61.2296 81.0652 61.6042 81.0652C61.9739 81.0652 62.2349 80.9106 62.3872 80.6012C62.5382 80.2895 62.6144 79.8363 62.6144 79.2431C62.6144 78.657 62.537 78.2136 62.3824 77.9139C62.2301 77.6142 61.9679 77.4644 61.5945 77.4644C61.2272 77.4644 60.9638 77.6142 60.8067 77.9139C60.6484 78.2111 60.5699 78.6534 60.5699 79.2431Z" fill="#003049"/>
<path d="M69.5352 82.8294C68.4066 82.8294 67.5511 82.5249 66.9687 81.9159C66.3851 81.3069 66.0939 80.4345 66.0939 79.2962C66.0939 78.1495 66.408 77.2614 67.0364 76.6331C67.6671 76.0047 68.5637 75.6906 69.7237 75.6906C70.5224 75.6906 71.2752 75.8646 71.9809 76.2126L71.28 77.9719C70.9925 77.8462 70.7266 77.7471 70.4825 77.6722C70.2409 77.5985 69.9871 77.5611 69.7237 77.5611C69.337 77.5611 69.0374 77.7109 68.8247 78.0106C68.6145 78.3102 68.5105 78.7343 68.5105 79.2817C68.5105 80.3873 68.9177 80.9396 69.7334 80.9396C70.4318 80.9396 71.1024 80.7366 71.744 80.3306V82.2204C71.1314 82.6264 70.3955 82.8294 69.5352 82.8294Z" fill="#003049"/>
<path d="M79.6991 79.2431C79.6991 80.3741 79.3946 81.2561 78.7856 81.8869C78.179 82.5152 77.3308 82.8294 76.2384 82.8294C75.1908 82.8294 74.3583 82.508 73.7396 81.8627C73.1209 81.2187 72.8116 80.3451 72.8116 79.2431C72.8116 78.1217 73.1137 77.2505 73.7203 76.6282C74.3293 76.0035 75.1811 75.6906 76.2771 75.6906C76.9538 75.6906 77.5507 75.8356 78.0703 76.1256C78.5923 76.4131 78.9934 76.8252 79.2738 77.3629C79.5565 77.9018 79.6991 78.5277 79.6991 79.2431ZM75.2283 79.2431C75.2283 79.8363 75.3068 80.2895 75.4651 80.6012C75.6222 80.9106 75.888 81.0652 76.2626 81.0652C76.6323 81.0652 76.8933 80.9106 77.0456 80.6012C77.1966 80.2895 77.2728 79.8363 77.2728 79.2431C77.2728 78.657 77.1954 78.2136 77.0408 77.9139C76.8885 77.6142 76.6263 77.4644 76.2529 77.4644C75.8856 77.4644 75.6222 77.6142 75.4651 77.9139C75.3068 78.2111 75.2283 78.6534 75.2283 79.2431Z" fill="#003049"/>
<path d="M85.2135 75.6906C85.4225 75.6906 85.6195 75.7075 85.8032 75.7389L85.9385 75.7631L85.7258 78.0106C85.5325 77.9622 85.263 77.9381 84.9187 77.9381C84.3967 77.9381 84.0173 78.0577 83.7828 78.2957C83.5472 78.5313 83.43 78.8733 83.43 79.3204V82.7086H81.052V75.8114H82.821L83.1932 76.9134H83.3092C83.5085 76.5497 83.7853 76.2548 84.1405 76.0289C84.4945 75.8041 84.8522 75.6906 85.2135 75.6906Z" fill="#003049"/>
<path d="M91.0612 75.6906C91.2702 75.6906 91.4672 75.7075 91.6508 75.7389L91.7862 75.7631L91.5735 78.0106C91.3802 77.9622 91.1107 77.9381 90.7663 77.9381C90.2443 77.9381 89.8649 78.0577 89.6305 78.2957C89.3949 78.5313 89.2777 78.8733 89.2777 79.3204V82.7086H86.8997V75.8114H88.6687L89.0408 76.9134H89.1568C89.3562 76.5497 89.6329 76.2548 89.9882 76.0289C90.3422 75.8041 90.6999 75.6906 91.0612 75.6906Z" fill="#003049"/>
<path d="M99.335 79.2431C99.335 80.3741 99.0305 81.2561 98.4215 81.8869C97.8149 82.5152 96.9667 82.8294 95.8743 82.8294C94.8267 82.8294 93.9942 82.508 93.3755 81.8627C92.7568 81.2187 92.4475 80.3451 92.4475 79.2431C92.4475 78.1217 92.7496 77.2505 93.3562 76.6282C93.9652 76.0035 94.8171 75.6906 95.913 75.6906C96.5897 75.6906 97.1866 75.8356 97.7062 76.1256C98.2282 76.4131 98.6293 76.8252 98.9097 77.3629C99.1924 77.9018 99.335 78.5277 99.335 79.2431ZM94.8642 79.2431C94.8642 79.8363 94.9427 80.2895 95.101 80.6012C95.2581 80.9106 95.5239 81.0652 95.8985 81.0652C96.2683 81.0652 96.5293 80.9106 96.6815 80.6012C96.8326 80.2895 96.9087 79.8363 96.9087 79.2431C96.9087 78.657 96.8313 78.2136 96.6767 77.9139C96.5244 77.6142 96.2622 77.4644 95.8888 77.4644C95.5215 77.4644 95.2581 77.6142 95.101 77.9139C94.9427 78.2111 94.8642 78.6534 94.8642 79.2431Z" fill="#003049"/>
<path d="M22.7483 94.3517L22.1442 93.7331C21.7793 93.9626 21.4796 94.1197 21.2452 94.2067C21.0132 94.2937 20.7522 94.359 20.4622 94.4049C20.1722 94.4496 19.8399 94.4726 19.4665 94.4726C18.8249 94.4726 18.2582 94.3626 17.7652 94.1439C17.2722 93.9252 16.8952 93.6195 16.6342 93.2256C16.3732 92.8328 16.2427 92.3846 16.2427 91.8819C16.2427 90.8186 16.7937 90.0053 17.8957 89.4411C17.6443 89.1583 17.4474 88.8562 17.306 88.5372C17.1671 88.2182 17.0982 87.8581 17.0982 87.4546C17.0982 86.8069 17.3471 86.2933 17.8473 85.9127C18.35 85.5297 19.0388 85.3376 19.916 85.3376C20.7727 85.3376 21.4397 85.5285 21.917 85.9079C22.3931 86.2849 22.6323 86.8008 22.6323 87.4546C22.6323 87.9065 22.5031 88.3233 22.2457 88.7064C21.9871 89.0906 21.5799 89.4507 21.0228 89.7891L22.236 90.9394C22.5417 90.473 22.7532 89.9437 22.8692 89.3541H25.339C25.2194 89.9147 25.0273 90.4778 24.7638 91.0409C24.5028 91.6016 24.208 92.0825 23.8793 92.4812L25.8272 94.3517H22.7483ZM18.6932 91.7079C18.6932 91.9665 18.7826 92.1767 18.9638 92.3411C19.1475 92.503 19.3904 92.5827 19.6937 92.5827C19.9221 92.5827 20.1238 92.5525 20.2978 92.4909C20.4743 92.4305 20.6096 92.3604 20.7038 92.2831L19.191 90.7509C18.8587 90.9962 18.6932 91.3152 18.6932 91.7079ZM20.4912 87.4546C20.4912 87.2588 20.4332 87.1162 20.3172 87.0292C20.2012 86.9398 20.0562 86.8939 19.8822 86.8939C19.7106 86.8939 19.5608 86.9458 19.4327 87.0486C19.3034 87.1488 19.2393 87.312 19.2393 87.5367C19.2393 87.84 19.4182 88.1542 19.7758 88.4792C20.0078 88.3511 20.1843 88.1965 20.3075 88.0152C20.4296 87.8316 20.4912 87.6455 20.4912 87.4546Z" fill="#003049"/>
<path d="M33.8814 94.3517H31.4792V87.4207H29.3042V85.4536H36.0515V87.4207H33.8814V94.3517Z" fill="#003049"/>
<path d="M41.3408 87.3337C41.5498 87.3337 41.7468 87.3507 41.9304 87.3821L42.0658 87.4062L41.8531 89.6537C41.6598 89.6054 41.3903 89.5812 41.0459 89.5812C40.5239 89.5812 40.1445 89.7009 39.9101 89.9389C39.6745 90.1745 39.5573 90.5165 39.5573 90.9636V94.3517H37.1793V87.4546H38.9483L39.3204 88.5566H39.4364C39.6358 88.1929 39.9125 87.898 40.2678 87.6721C40.6218 87.4473 40.9795 87.3337 41.3408 87.3337Z" fill="#003049"/>
<path d="M47.5267 94.3517L47.0675 93.4382H47.0192C46.7002 93.8382 46.3727 94.1101 46.038 94.2551C45.7057 94.4001 45.2755 94.4726 44.7475 94.4726C44.0998 94.4726 43.5887 94.278 43.2153 93.8877C42.8407 93.4987 42.6547 92.9501 42.6547 92.2444C42.6547 91.5097 42.9108 90.9636 43.4232 90.6059C43.9355 90.2458 44.675 90.044 45.6417 90.0017L46.792 89.9631V89.8664C46.792 89.2997 46.5129 89.0157 45.9558 89.0157C45.4532 89.0157 44.8127 89.1849 44.037 89.5232L43.3507 87.9524C44.153 87.5404 45.1656 87.3337 46.3908 87.3337C47.2765 87.3337 47.9617 87.5537 48.445 87.9911C48.9307 88.4297 49.1748 89.0423 49.1748 89.8277V94.3517H47.5267ZM45.7577 92.7954C46.0477 92.7954 46.2942 92.7036 46.4972 92.5199C46.7026 92.3362 46.8065 92.0994 46.8065 91.8094V91.2729L46.2603 91.2971C45.4773 91.3261 45.0858 91.6149 45.0858 92.1622C45.0858 92.5852 45.3094 92.7954 45.7577 92.7954Z" fill="#003049"/>
<path d="M55.1411 94.3517V90.5914C55.1411 90.131 55.0747 89.7842 54.943 89.5522C54.8137 89.3202 54.6022 89.2042 54.3098 89.2042C53.9062 89.2042 53.615 89.3662 53.435 89.6876C53.2573 90.0066 53.1691 90.5552 53.1691 91.3309V94.3517H50.7911V87.4546H52.5843L52.884 88.3101H53.0241C53.2271 87.985 53.5075 87.7422 53.8651 87.5802C54.2252 87.4159 54.6397 87.3337 55.1073 87.3337C55.871 87.3337 56.4631 87.5561 56.886 88.0007C57.3113 88.443 57.524 89.0641 57.524 89.8664V94.3517H55.1411Z" fill="#003049"/>
<path d="M64.466 92.2347C64.466 92.973 64.2146 93.5301 63.712 93.9071C63.2093 94.2841 62.4855 94.4726 61.5418 94.4726C61.0319 94.4726 60.5896 94.4448 60.2126 94.3904C59.8356 94.336 59.449 94.2357 59.0526 94.0907V92.1864C59.4224 92.3483 59.8272 92.4812 60.2658 92.5876C60.7068 92.6939 61.0996 92.7471 61.4451 92.7471C61.9599 92.7471 62.2185 92.6299 62.2185 92.3942C62.2185 92.2722 62.146 92.1647 62.001 92.0704C61.8584 91.9737 61.4403 91.7877 60.7443 91.5097C60.1123 91.2487 59.6713 90.9539 59.42 90.6252C59.1686 90.2942 59.043 89.8749 59.043 89.3686C59.043 88.7282 59.2895 88.2279 59.7825 87.8702C60.2779 87.5126 60.9787 87.3337 61.885 87.3337C62.3393 87.3337 62.7658 87.3845 63.1658 87.4836C63.5646 87.5839 63.9802 87.7289 64.4128 87.9186L63.7651 89.4507C63.4486 89.3094 63.1138 89.1897 62.7598 89.0931C62.4082 88.994 62.1194 88.9432 61.8946 88.9432C61.508 88.9432 61.3146 89.0387 61.3146 89.2284C61.3146 89.3444 61.3823 89.4447 61.5176 89.5281C61.653 89.6127 62.0445 89.7818 62.6921 90.0356C63.1755 90.2362 63.5356 90.4307 63.7748 90.6204C64.0128 90.8113 64.1868 91.0349 64.2968 91.2922C64.4092 91.5508 64.466 91.865 64.466 92.2347Z" fill="#003049"/>
<path d="M69.9216 94.4726C69.5736 94.4726 69.2607 94.4146 68.984 94.2986C68.7097 94.1826 68.4354 93.9747 68.1623 93.6751H68.056C68.1261 94.1584 68.1623 94.4593 68.1623 94.5789V97.3484H65.7843V87.4546H67.7176L68.056 88.3342H68.1623C68.607 87.6672 69.2172 87.3337 69.9941 87.3337C70.7578 87.3337 71.3571 87.6515 71.7921 88.2859C72.2271 88.9179 72.4446 89.7842 72.4446 90.8862C72.4446 92.0015 72.2175 92.8776 71.7631 93.5156C71.3112 94.1536 70.6974 94.4726 69.9216 94.4726ZM69.1241 89.2042C68.7761 89.2042 68.5308 89.3299 68.3895 89.5812C68.2505 89.8302 68.1744 90.1987 68.1623 90.6881V90.8766C68.1623 91.4699 68.2408 91.8988 68.3991 92.1622C68.5598 92.4269 68.81 92.5586 69.1483 92.5586C69.454 92.5586 69.6751 92.4281 69.8105 92.1671C69.9482 91.9037 70.0183 91.4687 70.0183 90.8621C70.0183 90.2724 69.9482 89.8495 69.8105 89.5909C69.6751 89.3335 69.4456 89.2042 69.1241 89.2042Z" fill="#003049"/>
<path d="M80.3859 90.8862C80.3859 92.0172 80.0814 92.8993 79.4724 93.5301C78.8658 94.1584 78.0176 94.4726 76.9252 94.4726C75.8776 94.4726 75.0451 94.1512 74.4264 93.5059C73.8077 92.8619 73.4984 91.9882 73.4984 90.8862C73.4984 89.7649 73.8005 88.8937 74.4071 88.2714C75.0161 87.6467 75.868 87.3337 76.9639 87.3337C77.6406 87.3337 78.2375 87.4787 78.7571 87.7687C79.2791 88.0563 79.6802 88.4684 79.9606 89.0061C80.2433 89.545 80.3859 90.1709 80.3859 90.8862ZM75.9151 90.8862C75.9151 91.4795 75.9936 91.9327 76.1519 92.2444C76.309 92.5537 76.5748 92.7084 76.9494 92.7084C77.3192 92.7084 77.5802 92.5537 77.7324 92.2444C77.8835 91.9327 77.9596 91.4795 77.9596 90.8862C77.9596 90.3002 77.8822 89.8567 77.7276 89.5571C77.5753 89.2574 77.3131 89.1076 76.9397 89.1076C76.5724 89.1076 76.309 89.2574 76.1519 89.5571C75.9936 89.8543 75.9151 90.2966 75.9151 90.8862Z" fill="#003049"/>
<path d="M85.9004 87.3337C86.1094 87.3337 86.3064 87.3507 86.4901 87.3821L86.6254 87.4062L86.4127 89.6537C86.2194 89.6054 85.9499 89.5812 85.6056 89.5812C85.0836 89.5812 84.7041 89.7009 84.4697 89.9389C84.2341 90.1745 84.1169 90.5165 84.1169 90.9636V94.3517H81.7389V87.4546H83.5079L83.8801 88.5566H83.9961C84.1954 88.1929 84.4721 87.898 84.8274 87.6721C85.1814 87.4473 85.5391 87.3337 85.9004 87.3337Z" fill="#003049"/>
<path d="M90.965 92.5924C91.284 92.5924 91.667 92.5138 92.1153 92.3555V94.0907C91.7927 94.2297 91.487 94.3275 91.197 94.3855C90.907 94.4435 90.5662 94.4725 90.1771 94.4725C89.3772 94.4725 88.8008 94.278 88.4468 93.8877C88.0952 93.495 87.92 92.892 87.92 92.08V89.238H87.0886V88.2714L88.1471 87.5222L88.761 86.0722H90.3173V87.4545H92.009V89.238H90.3173V91.9254C90.3173 92.37 90.5324 92.5924 90.965 92.5924Z" fill="#003049"/>
<path d="M96.6485 94.4726C95.4982 94.4726 94.6052 94.1681 93.9708 93.5591C93.3353 92.9477 93.0187 92.0777 93.0187 90.9491C93.0187 89.7867 93.3111 88.8937 93.8983 88.2714C94.488 87.6467 95.329 87.3337 96.4213 87.3337C97.4617 87.3337 98.2641 87.6044 98.8283 88.1457C99.3951 88.6871 99.679 89.4677 99.679 90.4851V91.5436H95.4257C95.4414 91.9302 95.5816 92.2335 95.8462 92.4522C96.1132 92.6722 96.4757 92.7809 96.9337 92.7809C97.3518 92.7809 97.7372 92.7422 98.0888 92.6649C98.4393 92.5852 98.8199 92.4498 99.2295 92.2589V93.9699C98.8549 94.1608 98.4683 94.2913 98.0695 94.3614C97.6732 94.4351 97.1995 94.4726 96.6485 94.4726ZM96.5083 88.9529C96.228 88.9529 95.9924 89.0423 95.8027 89.2187C95.6154 89.3964 95.5054 89.6731 95.474 90.0501H97.5185C97.5088 89.7154 97.4134 89.4495 97.2333 89.2526C97.0521 89.0532 96.8104 88.9529 96.5083 88.9529Z" fill="#003049"/>
</svg>
