<svg xmlns="http://www.w3.org/2000/svg" xmlns:xlink="http://www.w3.org/1999/xlink" width="500" zoomAndPan="magnify" viewBox="0 0 375 374.999991" height="500" preserveAspectRatio="xMidYMid meet" version="1.0"><defs><g/></defs><path fill="#c40000" d="M 107.980469 194.820312 L 107.980469 194.863281 L 71.648438 229.320312 L 108.003906 229.320312 L 144.382812 194.820312 L 107.980469 194.820312 " fill-opacity="1" fill-rule="nonzero"/><path fill="#c40000" d="M 151.363281 194.820312 L 151.363281 194.863281 L 115.03125 229.320312 L 151.390625 229.320312 L 187.765625 194.820312 L 151.363281 194.820312 " fill-opacity="1" fill-rule="nonzero"/><path fill="#c40000" d="M 195.707031 194.820312 L 195.707031 194.863281 L 159.375 229.320312 L 195.730469 229.320312 L 232.109375 194.820312 L 195.707031 194.820312 " fill-opacity="1" fill-rule="nonzero"/><path fill="#c40000" d="M 239.3125 194.820312 L 239.3125 194.863281 L 202.980469 229.320312 L 239.339844 229.320312 L 275.714844 194.820312 L 239.3125 194.820312 " fill-opacity="1" fill-rule="nonzero"/><g fill="#070c5d" fill-opacity="1"><g transform="translate(112.375684, 187.939163)"><g><path d="M 10.859375 0 L 10.859375 -100.4375 L 37.984375 -100.4375 L 37.984375 -21.90625 L 76.65625 -21.90625 L 76.65625 0 Z M 10.859375 0 "/></g></g></g><g fill="#070c5d" fill-opacity="1"><g transform="translate(194.255377, 187.939163)"><g><path d="M 76.53125 -30.5 C 76.53125 -24.269531 74.945312 -18.738281 71.78125 -13.90625 C 68.625 -9.070312 64.066406 -5.316406 58.109375 -2.640625 C 52.160156 0.0351562 45.175781 1.375 37.15625 1.375 C 30.476562 1.375 24.867188 0.90625 20.328125 -0.03125 C 15.796875 -0.96875 11.082031 -2.609375 6.1875 -4.953125 L 6.1875 -29.125 C 11.351562 -26.46875 16.726562 -24.394531 22.3125 -22.90625 C 27.90625 -21.414062 33.039062 -20.671875 37.71875 -20.671875 C 41.75 -20.671875 44.703125 -21.367188 46.578125 -22.765625 C 48.453125 -24.171875 49.390625 -25.972656 49.390625 -28.171875 C 49.390625 -29.535156 49.007812 -30.734375 48.25 -31.765625 C 47.5 -32.796875 46.285156 -33.835938 44.609375 -34.890625 C 42.941406 -35.953125 38.488281 -38.109375 31.25 -41.359375 C 24.707031 -44.328125 19.796875 -47.207031 16.515625 -50 C 13.242188 -52.800781 10.816406 -56.007812 9.234375 -59.625 C 7.660156 -63.238281 6.875 -67.519531 6.875 -72.46875 C 6.875 -81.71875 10.238281 -88.929688 16.96875 -94.109375 C 23.695312 -99.285156 32.945312 -101.875 44.71875 -101.875 C 55.113281 -101.875 65.71875 -99.46875 76.53125 -94.65625 L 68.21875 -73.703125 C 58.820312 -78.015625 50.710938 -80.171875 43.890625 -80.171875 C 40.367188 -80.171875 37.804688 -79.550781 36.203125 -78.3125 C 34.597656 -77.070312 33.796875 -75.535156 33.796875 -73.703125 C 33.796875 -71.734375 34.8125 -69.96875 36.84375 -68.40625 C 38.882812 -66.851562 44.414062 -64.019531 53.4375 -59.90625 C 62.09375 -56.007812 68.101562 -51.828125 71.46875 -47.359375 C 74.84375 -42.898438 76.53125 -37.28125 76.53125 -30.5 Z M 76.53125 -30.5 "/></g></g></g><g fill="#070c5d" fill-opacity="1"><g transform="translate(52.151586, 279.377021)"><g><path d="M 20.765625 0 L 19.34375 -5.390625 L 10 -5.390625 L 8.546875 0 L 0 0 L 9.390625 -28.890625 L 19.75 -28.890625 L 29.265625 0 Z M 17.734375 -11.765625 L 16.484375 -16.484375 C 16.203125 -17.535156 15.851562 -18.894531 15.4375 -20.5625 C 15.019531 -22.226562 14.75 -23.421875 14.625 -24.140625 C 14.5 -23.472656 14.265625 -22.367188 13.921875 -20.828125 C 13.578125 -19.296875 12.804688 -16.273438 11.609375 -11.765625 Z M 17.734375 -11.765625 "/></g></g></g><g fill="#070c5d" fill-opacity="1"><g transform="translate(81.402293, 279.377021)"><g><path d="M 18.53125 0 L 17.578125 -2.78125 L 17.125 -2.78125 C 16.476562 -1.75 15.578125 -0.960938 14.421875 -0.421875 C 13.273438 0.117188 11.929688 0.390625 10.390625 0.390625 C 7.929688 0.390625 6.019531 -0.316406 4.65625 -1.734375 C 3.289062 -3.160156 2.609375 -5.171875 2.609375 -7.765625 L 2.609375 -22.296875 L 10.3125 -22.296875 L 10.3125 -10.109375 C 10.3125 -8.648438 10.515625 -7.546875 10.921875 -6.796875 C 11.335938 -6.054688 12.019531 -5.6875 12.96875 -5.6875 C 14.289062 -5.6875 15.234375 -6.207031 15.796875 -7.25 C 16.359375 -8.289062 16.640625 -10.050781 16.640625 -12.53125 L 16.640625 -22.296875 L 24.34375 -22.296875 L 24.34375 0 Z M 18.53125 0 "/></g></g></g><g fill="#070c5d" fill-opacity="1"><g transform="translate(108.390835, 279.377021)"><g><path d="M 13.578125 -5.6875 C 14.609375 -5.6875 15.847656 -5.941406 17.296875 -6.453125 L 17.296875 -0.84375 C 16.253906 -0.394531 15.265625 -0.078125 14.328125 0.109375 C 13.390625 0.296875 12.289062 0.390625 11.03125 0.390625 C 8.445312 0.390625 6.582031 -0.238281 5.4375 -1.5 C 4.300781 -2.769531 3.734375 -4.71875 3.734375 -7.34375 L 3.734375 -16.53125 L 1.046875 -16.53125 L 1.046875 -19.65625 L 4.46875 -22.078125 L 6.453125 -26.765625 L 11.484375 -26.765625 L 11.484375 -22.296875 L 16.953125 -22.296875 L 16.953125 -16.53125 L 11.484375 -16.53125 L 11.484375 -7.84375 C 11.484375 -6.40625 12.179688 -5.6875 13.578125 -5.6875 Z M 13.578125 -5.6875 "/></g></g></g><g fill="#070c5d" fill-opacity="1"><g transform="translate(126.92087, 279.377021)"><g><path d="M 23.953125 -11.203125 C 23.953125 -7.546875 22.96875 -4.695312 21 -2.65625 C 19.039062 -0.625 16.296875 0.390625 12.765625 0.390625 C 9.378906 0.390625 6.6875 -0.648438 4.6875 -2.734375 C 2.6875 -4.816406 1.6875 -7.640625 1.6875 -11.203125 C 1.6875 -14.828125 2.664062 -17.644531 4.625 -19.65625 C 6.59375 -21.675781 9.347656 -22.6875 12.890625 -22.6875 C 15.078125 -22.6875 17.007812 -22.21875 18.6875 -21.28125 C 20.375 -20.351562 21.671875 -19.019531 22.578125 -17.28125 C 23.492188 -15.539062 23.953125 -13.515625 23.953125 -11.203125 Z M 9.5 -11.203125 C 9.5 -9.285156 9.753906 -7.820312 10.265625 -6.8125 C 10.773438 -5.8125 11.632812 -5.3125 12.84375 -5.3125 C 14.039062 -5.3125 14.882812 -5.8125 15.375 -6.8125 C 15.863281 -7.820312 16.109375 -9.285156 16.109375 -11.203125 C 16.109375 -13.097656 15.859375 -14.53125 15.359375 -15.5 C 14.867188 -16.46875 14.019531 -16.953125 12.8125 -16.953125 C 11.625 -16.953125 10.773438 -16.46875 10.265625 -15.5 C 9.753906 -14.539062 9.5 -13.109375 9.5 -11.203125 Z M 9.5 -11.203125 "/></g></g></g><g fill="#070c5d" fill-opacity="1"><g transform="translate(152.591463, 279.377021)"><g/></g></g><g fill="#070c5d" fill-opacity="1"><g transform="translate(163.056408, 279.377021)"><g><path d="M 21.921875 -8.734375 C 21.921875 -6.953125 21.46875 -5.367188 20.5625 -3.984375 C 19.65625 -2.597656 18.347656 -1.519531 16.640625 -0.75 C 14.941406 0.0078125 12.941406 0.390625 10.640625 0.390625 C 8.722656 0.390625 7.113281 0.257812 5.8125 0 C 4.519531 -0.269531 3.171875 -0.742188 1.765625 -1.421875 L 1.765625 -8.34375 C 3.253906 -7.582031 4.796875 -6.988281 6.390625 -6.5625 C 7.992188 -6.132812 9.460938 -5.921875 10.796875 -5.921875 C 11.953125 -5.921875 12.796875 -6.117188 13.328125 -6.515625 C 13.867188 -6.921875 14.140625 -7.4375 14.140625 -8.0625 C 14.140625 -8.457031 14.03125 -8.800781 13.8125 -9.09375 C 13.601562 -9.394531 13.257812 -9.695312 12.78125 -10 C 12.300781 -10.300781 11.023438 -10.914062 8.953125 -11.84375 C 7.078125 -12.695312 5.671875 -13.523438 4.734375 -14.328125 C 3.796875 -15.128906 3.097656 -16.046875 2.640625 -17.078125 C 2.191406 -18.117188 1.96875 -19.347656 1.96875 -20.765625 C 1.96875 -23.410156 2.929688 -25.472656 4.859375 -26.953125 C 6.785156 -28.441406 9.4375 -29.1875 12.8125 -29.1875 C 15.789062 -29.1875 18.828125 -28.492188 21.921875 -27.109375 L 19.53125 -21.109375 C 16.84375 -22.347656 14.523438 -22.96875 12.578125 -22.96875 C 11.566406 -22.96875 10.832031 -22.789062 10.375 -22.4375 C 9.914062 -22.082031 9.6875 -21.640625 9.6875 -21.109375 C 9.6875 -20.546875 9.976562 -20.039062 10.5625 -19.59375 C 11.144531 -19.144531 12.726562 -18.332031 15.3125 -17.15625 C 17.789062 -16.039062 19.507812 -14.84375 20.46875 -13.5625 C 21.4375 -12.28125 21.921875 -10.671875 21.921875 -8.734375 Z M 21.921875 -8.734375 "/></g></g></g><g fill="#070c5d" fill-opacity="1"><g transform="translate(186.30747, 279.377021)"><g><path d="M 23.953125 -11.203125 C 23.953125 -7.546875 22.96875 -4.695312 21 -2.65625 C 19.039062 -0.625 16.296875 0.390625 12.765625 0.390625 C 9.378906 0.390625 6.6875 -0.648438 4.6875 -2.734375 C 2.6875 -4.816406 1.6875 -7.640625 1.6875 -11.203125 C 1.6875 -14.828125 2.664062 -17.644531 4.625 -19.65625 C 6.59375 -21.675781 9.347656 -22.6875 12.890625 -22.6875 C 15.078125 -22.6875 17.007812 -22.21875 18.6875 -21.28125 C 20.375 -20.351562 21.671875 -19.019531 22.578125 -17.28125 C 23.492188 -15.539062 23.953125 -13.515625 23.953125 -11.203125 Z M 9.5 -11.203125 C 9.5 -9.285156 9.753906 -7.820312 10.265625 -6.8125 C 10.773438 -5.8125 11.632812 -5.3125 12.84375 -5.3125 C 14.039062 -5.3125 14.882812 -5.8125 15.375 -6.8125 C 15.863281 -7.820312 16.109375 -9.285156 16.109375 -11.203125 C 16.109375 -13.097656 15.859375 -14.53125 15.359375 -15.5 C 14.867188 -16.46875 14.019531 -16.953125 12.8125 -16.953125 C 11.625 -16.953125 10.773438 -16.46875 10.265625 -15.5 C 9.753906 -14.539062 9.5 -13.109375 9.5 -11.203125 Z M 9.5 -11.203125 "/></g></g></g><g fill="#070c5d" fill-opacity="1"><g transform="translate(211.978064, 279.377021)"><g><path d="M 12.8125 0.390625 C 9.164062 0.390625 6.398438 -0.59375 4.515625 -2.5625 C 2.628906 -4.53125 1.6875 -7.351562 1.6875 -11.03125 C 1.6875 -14.738281 2.703125 -17.609375 4.734375 -19.640625 C 6.773438 -21.671875 9.671875 -22.6875 13.421875 -22.6875 C 16.003906 -22.6875 18.4375 -22.125 20.71875 -21 L 18.453125 -15.3125 C 17.523438 -15.71875 16.664062 -16.039062 15.875 -16.28125 C 15.09375 -16.519531 14.273438 -16.640625 13.421875 -16.640625 C 12.171875 -16.640625 11.203125 -16.15625 10.515625 -15.1875 C 9.835938 -14.21875 9.5 -12.847656 9.5 -11.078125 C 9.5 -7.503906 10.816406 -5.71875 13.453125 -5.71875 C 15.710938 -5.71875 17.878906 -6.375 19.953125 -7.6875 L 19.953125 -1.578125 C 17.972656 -0.265625 15.59375 0.390625 12.8125 0.390625 Z M 12.8125 0.390625 "/></g></g></g><g fill="#070c5d" fill-opacity="1"><g transform="translate(233.694792, 279.377021)"><g><path d="M 23.953125 -11.203125 C 23.953125 -7.546875 22.96875 -4.695312 21 -2.65625 C 19.039062 -0.625 16.296875 0.390625 12.765625 0.390625 C 9.378906 0.390625 6.6875 -0.648438 4.6875 -2.734375 C 2.6875 -4.816406 1.6875 -7.640625 1.6875 -11.203125 C 1.6875 -14.828125 2.664062 -17.644531 4.625 -19.65625 C 6.59375 -21.675781 9.347656 -22.6875 12.890625 -22.6875 C 15.078125 -22.6875 17.007812 -22.21875 18.6875 -21.28125 C 20.375 -20.351562 21.671875 -19.019531 22.578125 -17.28125 C 23.492188 -15.539062 23.953125 -13.515625 23.953125 -11.203125 Z M 9.5 -11.203125 C 9.5 -9.285156 9.753906 -7.820312 10.265625 -6.8125 C 10.773438 -5.8125 11.632812 -5.3125 12.84375 -5.3125 C 14.039062 -5.3125 14.882812 -5.8125 15.375 -6.8125 C 15.863281 -7.820312 16.109375 -9.285156 16.109375 -11.203125 C 16.109375 -13.097656 15.859375 -14.53125 15.359375 -15.5 C 14.867188 -16.46875 14.019531 -16.953125 12.8125 -16.953125 C 11.625 -16.953125 10.773438 -16.46875 10.265625 -15.5 C 9.753906 -14.539062 9.5 -13.109375 9.5 -11.203125 Z M 9.5 -11.203125 "/></g></g></g><g fill="#070c5d" fill-opacity="1"><g transform="translate(259.365376, 279.377021)"><g><path d="M 16.109375 -22.6875 C 16.785156 -22.6875 17.421875 -22.632812 18.015625 -22.53125 L 18.453125 -22.453125 L 17.765625 -15.1875 C 17.140625 -15.34375 16.269531 -15.421875 15.15625 -15.421875 C 13.46875 -15.421875 12.242188 -15.035156 11.484375 -14.265625 C 10.722656 -13.503906 10.34375 -12.398438 10.34375 -10.953125 L 10.34375 0 L 2.65625 0 L 2.65625 -22.296875 L 8.375 -22.296875 L 9.578125 -18.734375 L 9.953125 -18.734375 C 10.597656 -19.910156 11.492188 -20.863281 12.640625 -21.59375 C 13.785156 -22.320312 14.941406 -22.6875 16.109375 -22.6875 Z M 16.109375 -22.6875 "/></g></g></g><g fill="#070c5d" fill-opacity="1"><g transform="translate(278.269173, 279.377021)"><g><path d="M 16.109375 -22.6875 C 16.785156 -22.6875 17.421875 -22.632812 18.015625 -22.53125 L 18.453125 -22.453125 L 17.765625 -15.1875 C 17.140625 -15.34375 16.269531 -15.421875 15.15625 -15.421875 C 13.46875 -15.421875 12.242188 -15.035156 11.484375 -14.265625 C 10.722656 -13.503906 10.34375 -12.398438 10.34375 -10.953125 L 10.34375 0 L 2.65625 0 L 2.65625 -22.296875 L 8.375 -22.296875 L 9.578125 -18.734375 L 9.953125 -18.734375 C 10.597656 -19.910156 11.492188 -20.863281 12.640625 -21.59375 C 13.785156 -22.320312 14.941406 -22.6875 16.109375 -22.6875 Z M 16.109375 -22.6875 "/></g></g></g><g fill="#070c5d" fill-opacity="1"><g transform="translate(297.17297, 279.377021)"><g><path d="M 23.953125 -11.203125 C 23.953125 -7.546875 22.96875 -4.695312 21 -2.65625 C 19.039062 -0.625 16.296875 0.390625 12.765625 0.390625 C 9.378906 0.390625 6.6875 -0.648438 4.6875 -2.734375 C 2.6875 -4.816406 1.6875 -7.640625 1.6875 -11.203125 C 1.6875 -14.828125 2.664062 -17.644531 4.625 -19.65625 C 6.59375 -21.675781 9.347656 -22.6875 12.890625 -22.6875 C 15.078125 -22.6875 17.007812 -22.21875 18.6875 -21.28125 C 20.375 -20.351562 21.671875 -19.019531 22.578125 -17.28125 C 23.492188 -15.539062 23.953125 -13.515625 23.953125 -11.203125 Z M 9.5 -11.203125 C 9.5 -9.285156 9.753906 -7.820312 10.265625 -6.8125 C 10.773438 -5.8125 11.632812 -5.3125 12.84375 -5.3125 C 14.039062 -5.3125 14.882812 -5.8125 15.375 -6.8125 C 15.863281 -7.820312 16.109375 -9.285156 16.109375 -11.203125 C 16.109375 -13.097656 15.859375 -14.53125 15.359375 -15.5 C 14.867188 -16.46875 14.019531 -16.953125 12.8125 -16.953125 C 11.625 -16.953125 10.773438 -16.46875 10.265625 -15.5 C 9.753906 -14.539062 9.5 -13.109375 9.5 -11.203125 Z M 9.5 -11.203125 "/></g></g></g><g fill="#070c5d" fill-opacity="1"><g transform="translate(51.086889, 317.016593)"><g><path d="M 22.453125 0 L 20.5 -2 C 19.320312 -1.257812 18.351562 -0.75 17.59375 -0.46875 C 16.84375 -0.1875 16 0.0234375 15.0625 0.171875 C 14.125 0.316406 13.050781 0.390625 11.84375 0.390625 C 9.769531 0.390625 7.9375 0.0351562 6.34375 -0.671875 C 4.75 -1.378906 3.53125 -2.367188 2.6875 -3.640625 C 1.84375 -4.910156 1.421875 -6.359375 1.421875 -7.984375 C 1.421875 -11.421875 3.203125 -14.050781 6.765625 -15.875 C 5.953125 -16.789062 5.316406 -17.765625 4.859375 -18.796875 C 4.410156 -19.828125 4.1875 -20.992188 4.1875 -22.296875 C 4.1875 -24.390625 4.992188 -26.050781 6.609375 -27.28125 C 8.234375 -28.519531 10.460938 -29.140625 13.296875 -29.140625 C 16.066406 -29.140625 18.222656 -28.523438 19.765625 -27.296875 C 21.304688 -26.078125 22.078125 -24.410156 22.078125 -22.296875 C 22.078125 -20.835938 21.660156 -19.488281 20.828125 -18.25 C 19.992188 -17.007812 18.675781 -15.84375 16.875 -14.75 L 20.796875 -11.03125 C 21.785156 -12.539062 22.46875 -14.25 22.84375 -16.15625 L 30.828125 -16.15625 C 30.441406 -14.34375 29.820312 -12.523438 28.96875 -10.703125 C 28.125 -8.890625 27.171875 -7.335938 26.109375 -6.046875 L 32.40625 0 Z M 9.34375 -8.546875 C 9.34375 -7.710938 9.632812 -7.03125 10.21875 -6.5 C 10.8125 -5.976562 11.597656 -5.71875 12.578125 -5.71875 C 13.316406 -5.71875 13.96875 -5.816406 14.53125 -6.015625 C 15.101562 -6.210938 15.539062 -6.4375 15.84375 -6.6875 L 10.953125 -11.640625 C 9.878906 -10.847656 9.34375 -9.816406 9.34375 -8.546875 Z M 15.15625 -22.296875 C 15.15625 -22.929688 14.96875 -23.390625 14.59375 -23.671875 C 14.21875 -23.960938 13.75 -24.109375 13.1875 -24.109375 C 12.632812 -24.109375 12.148438 -23.941406 11.734375 -23.609375 C 11.316406 -23.285156 11.109375 -22.757812 11.109375 -22.03125 C 11.109375 -21.050781 11.6875 -20.035156 12.84375 -18.984375 C 13.59375 -19.398438 14.164062 -19.898438 14.5625 -20.484375 C 14.957031 -21.078125 15.15625 -21.679688 15.15625 -22.296875 Z M 15.15625 -22.296875 "/></g></g></g><g fill="#070c5d" fill-opacity="1"><g transform="translate(83.268562, 317.016593)"><g/></g></g><g fill="#070c5d" fill-opacity="1"><g transform="translate(93.733507, 317.016593)"><g><path d="M 15.796875 0 L 8.03125 0 L 8.03125 -22.40625 L 1 -22.40625 L 1 -28.765625 L 22.8125 -28.765625 L 22.8125 -22.40625 L 15.796875 -22.40625 Z M 15.796875 0 "/></g></g></g><g fill="#070c5d" fill-opacity="1"><g transform="translate(117.535355, 317.016593)"><g><path d="M 16.109375 -22.6875 C 16.785156 -22.6875 17.421875 -22.632812 18.015625 -22.53125 L 18.453125 -22.453125 L 17.765625 -15.1875 C 17.140625 -15.34375 16.269531 -15.421875 15.15625 -15.421875 C 13.46875 -15.421875 12.242188 -15.035156 11.484375 -14.265625 C 10.722656 -13.503906 10.34375 -12.398438 10.34375 -10.953125 L 10.34375 0 L 2.65625 0 L 2.65625 -22.296875 L 8.375 -22.296875 L 9.578125 -18.734375 L 9.953125 -18.734375 C 10.597656 -19.910156 11.492188 -20.863281 12.640625 -21.59375 C 13.785156 -22.320312 14.941406 -22.6875 16.109375 -22.6875 Z M 16.109375 -22.6875 "/></g></g></g><g fill="#070c5d" fill-opacity="1"><g transform="translate(136.439142, 317.016593)"><g><path d="M 17.203125 0 L 15.71875 -2.953125 L 15.5625 -2.953125 C 14.53125 -1.660156 13.472656 -0.78125 12.390625 -0.3125 C 11.316406 0.15625 9.925781 0.390625 8.21875 0.390625 C 6.125 0.390625 4.472656 -0.238281 3.265625 -1.5 C 2.054688 -2.757812 1.453125 -4.53125 1.453125 -6.8125 C 1.453125 -9.1875 2.28125 -10.953125 3.9375 -12.109375 C 5.59375 -13.273438 7.984375 -13.925781 11.109375 -14.0625 L 14.828125 -14.1875 L 14.828125 -14.5 C 14.828125 -16.332031 13.925781 -17.25 12.125 -17.25 C 10.5 -17.25 8.429688 -16.703125 5.921875 -15.609375 L 3.703125 -20.6875 C 6.296875 -22.019531 9.570312 -22.6875 13.53125 -22.6875 C 16.394531 -22.6875 18.609375 -21.976562 20.171875 -20.5625 C 21.742188 -19.144531 22.53125 -17.164062 22.53125 -14.625 L 22.53125 0 Z M 11.484375 -5.03125 C 12.421875 -5.03125 13.21875 -5.328125 13.875 -5.921875 C 14.539062 -6.515625 14.875 -7.28125 14.875 -8.21875 L 14.875 -9.953125 L 13.109375 -9.875 C 10.578125 -9.78125 9.3125 -8.847656 9.3125 -7.078125 C 9.3125 -5.710938 10.035156 -5.03125 11.484375 -5.03125 Z M 11.484375 -5.03125 "/></g></g></g><g fill="#070c5d" fill-opacity="1"><g transform="translate(161.539274, 317.016593)"><g><path d="M 16.71875 0 L 16.71875 -12.15625 C 16.71875 -13.644531 16.503906 -14.765625 16.078125 -15.515625 C 15.660156 -16.265625 14.976562 -16.640625 14.03125 -16.640625 C 12.726562 -16.640625 11.785156 -16.117188 11.203125 -15.078125 C 10.628906 -14.046875 10.34375 -12.273438 10.34375 -9.765625 L 10.34375 0 L 2.65625 0 L 2.65625 -22.296875 L 8.453125 -22.296875 L 9.421875 -19.53125 L 9.875 -19.53125 C 10.53125 -20.582031 11.4375 -21.367188 12.59375 -21.890625 C 13.757812 -22.421875 15.097656 -22.6875 16.609375 -22.6875 C 19.078125 -22.6875 20.992188 -21.96875 22.359375 -20.53125 C 23.734375 -19.101562 24.421875 -17.09375 24.421875 -14.5 L 24.421875 0 Z M 16.71875 0 "/></g></g></g><g fill="#070c5d" fill-opacity="1"><g transform="translate(188.527816, 317.016593)"><g><path d="M 19.875 -6.84375 C 19.875 -4.457031 19.0625 -2.65625 17.4375 -1.4375 C 15.8125 -0.21875 13.472656 0.390625 10.421875 0.390625 C 8.773438 0.390625 7.34375 0.300781 6.125 0.125 C 4.90625 -0.0507812 3.65625 -0.375 2.375 -0.84375 L 2.375 -7 C 3.570312 -6.476562 4.878906 -6.046875 6.296875 -5.703125 C 7.722656 -5.359375 8.992188 -5.1875 10.109375 -5.1875 C 11.773438 -5.1875 12.609375 -5.566406 12.609375 -6.328125 C 12.609375 -6.722656 12.375 -7.070312 11.90625 -7.375 C 11.445312 -7.6875 10.09375 -8.289062 7.84375 -9.1875 C 5.800781 -10.03125 4.375 -10.984375 3.5625 -12.046875 C 2.75 -13.117188 2.34375 -14.472656 2.34375 -16.109375 C 2.34375 -18.179688 3.140625 -19.796875 4.734375 -20.953125 C 6.335938 -22.109375 8.601562 -22.6875 11.53125 -22.6875 C 13 -22.6875 14.378906 -22.523438 15.671875 -22.203125 C 16.960938 -21.878906 18.304688 -21.410156 19.703125 -20.796875 L 17.609375 -15.84375 C 16.585938 -16.300781 15.503906 -16.6875 14.359375 -17 C 13.222656 -17.320312 12.289062 -17.484375 11.5625 -17.484375 C 10.3125 -17.484375 9.6875 -17.175781 9.6875 -16.5625 C 9.6875 -16.1875 9.90625 -15.863281 10.34375 -15.59375 C 10.78125 -15.320312 12.046875 -14.773438 14.140625 -13.953125 C 15.703125 -13.304688 16.867188 -12.675781 17.640625 -12.0625 C 18.410156 -11.445312 18.972656 -10.722656 19.328125 -9.890625 C 19.691406 -9.054688 19.875 -8.039062 19.875 -6.84375 Z M 19.875 -6.84375 "/></g></g></g><g fill="#070c5d" fill-opacity="1"><g transform="translate(210.008493, 317.016593)"><g><path d="M 16.03125 0.390625 C 14.90625 0.390625 13.894531 0.203125 13 -0.171875 C 12.113281 -0.546875 11.226562 -1.21875 10.34375 -2.1875 L 10 -2.1875 C 10.226562 -0.625 10.34375 0.347656 10.34375 0.734375 L 10.34375 9.6875 L 2.65625 9.6875 L 2.65625 -22.296875 L 8.90625 -22.296875 L 10 -19.453125 L 10.34375 -19.453125 C 11.78125 -21.609375 13.753906 -22.6875 16.265625 -22.6875 C 18.734375 -22.6875 20.671875 -21.660156 22.078125 -19.609375 C 23.484375 -17.566406 24.1875 -14.765625 24.1875 -11.203125 C 24.1875 -7.597656 23.453125 -4.765625 21.984375 -2.703125 C 20.523438 -0.640625 18.539062 0.390625 16.03125 0.390625 Z M 13.453125 -16.640625 C 12.328125 -16.640625 11.535156 -16.234375 11.078125 -15.421875 C 10.628906 -14.617188 10.382812 -13.425781 10.34375 -11.84375 L 10.34375 -11.234375 C 10.34375 -9.316406 10.597656 -7.929688 11.109375 -7.078125 C 11.628906 -6.222656 12.4375 -5.796875 13.53125 -5.796875 C 14.519531 -5.796875 15.234375 -6.21875 15.671875 -7.0625 C 16.117188 -7.914062 16.34375 -9.320312 16.34375 -11.28125 C 16.34375 -13.1875 16.117188 -14.554688 15.671875 -15.390625 C 15.234375 -16.222656 14.492188 -16.640625 13.453125 -16.640625 Z M 13.453125 -16.640625 "/></g></g></g><g fill="#070c5d" fill-opacity="1"><g transform="translate(235.915148, 317.016593)"><g><path d="M 23.953125 -11.203125 C 23.953125 -7.546875 22.96875 -4.695312 21 -2.65625 C 19.039062 -0.625 16.296875 0.390625 12.765625 0.390625 C 9.378906 0.390625 6.6875 -0.648438 4.6875 -2.734375 C 2.6875 -4.816406 1.6875 -7.640625 1.6875 -11.203125 C 1.6875 -14.828125 2.664062 -17.644531 4.625 -19.65625 C 6.59375 -21.675781 9.347656 -22.6875 12.890625 -22.6875 C 15.078125 -22.6875 17.007812 -22.21875 18.6875 -21.28125 C 20.375 -20.351562 21.671875 -19.019531 22.578125 -17.28125 C 23.492188 -15.539062 23.953125 -13.515625 23.953125 -11.203125 Z M 9.5 -11.203125 C 9.5 -9.285156 9.753906 -7.820312 10.265625 -6.8125 C 10.773438 -5.8125 11.632812 -5.3125 12.84375 -5.3125 C 14.039062 -5.3125 14.882812 -5.8125 15.375 -6.8125 C 15.863281 -7.820312 16.109375 -9.285156 16.109375 -11.203125 C 16.109375 -13.097656 15.859375 -14.53125 15.359375 -15.5 C 14.867188 -16.46875 14.019531 -16.953125 12.8125 -16.953125 C 11.625 -16.953125 10.773438 -16.46875 10.265625 -15.5 C 9.753906 -14.539062 9.5 -13.109375 9.5 -11.203125 Z M 9.5 -11.203125 "/></g></g></g><g fill="#070c5d" fill-opacity="1"><g transform="translate(261.585752, 317.016593)"><g><path d="M 16.109375 -22.6875 C 16.785156 -22.6875 17.421875 -22.632812 18.015625 -22.53125 L 18.453125 -22.453125 L 17.765625 -15.1875 C 17.140625 -15.34375 16.269531 -15.421875 15.15625 -15.421875 C 13.46875 -15.421875 12.242188 -15.035156 11.484375 -14.265625 C 10.722656 -13.503906 10.34375 -12.398438 10.34375 -10.953125 L 10.34375 0 L 2.65625 0 L 2.65625 -22.296875 L 8.375 -22.296875 L 9.578125 -18.734375 L 9.953125 -18.734375 C 10.597656 -19.910156 11.492188 -20.863281 12.640625 -21.59375 C 13.785156 -22.320312 14.941406 -22.6875 16.109375 -22.6875 Z M 16.109375 -22.6875 "/></g></g></g><g fill="#070c5d" fill-opacity="1"><g transform="translate(280.489549, 317.016593)"><g><path d="M 13.578125 -5.6875 C 14.609375 -5.6875 15.847656 -5.941406 17.296875 -6.453125 L 17.296875 -0.84375 C 16.253906 -0.394531 15.265625 -0.078125 14.328125 0.109375 C 13.390625 0.296875 12.289062 0.390625 11.03125 0.390625 C 8.445312 0.390625 6.582031 -0.238281 5.4375 -1.5 C 4.300781 -2.769531 3.734375 -4.71875 3.734375 -7.34375 L 3.734375 -16.53125 L 1.046875 -16.53125 L 1.046875 -19.65625 L 4.46875 -22.078125 L 6.453125 -26.765625 L 11.484375 -26.765625 L 11.484375 -22.296875 L 16.953125 -22.296875 L 16.953125 -16.53125 L 11.484375 -16.53125 L 11.484375 -7.84375 C 11.484375 -6.40625 12.179688 -5.6875 13.578125 -5.6875 Z M 13.578125 -5.6875 "/></g></g></g><g fill="#070c5d" fill-opacity="1"><g transform="translate(299.019594, 317.016593)"><g><path d="M 13.421875 0.390625 C 9.703125 0.390625 6.816406 -0.59375 4.765625 -2.5625 C 2.710938 -4.539062 1.6875 -7.351562 1.6875 -11 C 1.6875 -14.757812 2.632812 -17.644531 4.53125 -19.65625 C 6.4375 -21.675781 9.15625 -22.6875 12.6875 -22.6875 C 16.050781 -22.6875 18.644531 -21.8125 20.46875 -20.0625 C 22.300781 -18.3125 23.21875 -15.789062 23.21875 -12.5 L 23.21875 -9.078125 L 9.46875 -9.078125 C 9.519531 -7.828125 9.972656 -6.847656 10.828125 -6.140625 C 11.691406 -5.429688 12.863281 -5.078125 14.34375 -5.078125 C 15.695312 -5.078125 16.941406 -5.203125 18.078125 -5.453125 C 19.210938 -5.710938 20.441406 -6.148438 21.765625 -6.765625 L 21.765625 -1.234375 C 20.554688 -0.617188 19.304688 -0.195312 18.015625 0.03125 C 16.734375 0.269531 15.203125 0.390625 13.421875 0.390625 Z M 12.96875 -17.453125 C 12.0625 -17.453125 11.300781 -17.164062 10.6875 -16.59375 C 10.082031 -16.019531 9.726562 -15.125 9.625 -13.90625 L 16.234375 -13.90625 C 16.203125 -14.988281 15.894531 -15.847656 15.3125 -16.484375 C 14.726562 -17.128906 13.945312 -17.453125 12.96875 -17.453125 Z M 12.96875 -17.453125 "/></g></g></g></svg>