<svg width="107" height="117" viewBox="0 0 107 117" fill="none" xmlns="http://www.w3.org/2000/svg">
<path d="M30.5876 69.093V69.1088L18.6147 81.6719H30.5954L42.5827 69.093H30.5876Z" fill="#C1121F"/>
<path d="M44.8931 69.093V69.1088L32.9214 81.6719H44.902L56.8894 69.093H44.8931Z" fill="#C1121F"/>
<path d="M59.5154 69.093V69.1088L47.5436 81.6719H59.5243L71.5116 69.093H59.5154Z" fill="#C1121F"/>
<path d="M73.8947 69.093V69.1088L61.9229 81.6719H73.9036L85.8909 69.093H73.8947Z" fill="#C1121F"/>
<path d="M35.6279 66.6231V30.5704H44.5758V58.7564H57.3266V66.6231H35.6279Z" fill="#003049"/>
<path d="M84.2826 55.6747C84.2826 57.9107 83.761 59.8956 82.7177 61.6293C81.6767 63.3642 80.1743 64.7134 78.2104 65.6767C76.2487 66.6376 73.946 67.118 71.3044 67.118C69.0986 67.118 67.2484 66.9494 65.7538 66.6133C64.258 66.2736 62.7021 65.6852 61.0859 64.8468V56.1697C62.7912 57.1209 64.5656 57.8658 66.4092 58.4021C68.2516 58.9359 69.9424 59.2028 71.4827 59.2028C72.8136 59.2028 73.7888 58.9529 74.4074 58.4506C75.0249 57.9495 75.3347 57.3041 75.3347 56.5143C75.3347 56.0193 75.2099 55.5874 74.9602 55.2185C74.7128 54.8497 74.3138 54.476 73.761 54.0975C73.2103 53.719 71.7424 52.9461 69.3561 51.7778C67.1949 50.7101 65.5754 49.6752 64.4965 48.6719C63.4176 47.6697 62.6162 46.5196 62.0935 45.2214C61.573 43.9208 61.3133 42.3824 61.3133 40.6062C61.3133 37.2868 62.4234 34.699 64.6437 32.8415C66.8639 30.9852 69.9145 30.0559 73.7966 30.0559C77.2228 30.0559 80.7182 30.9185 84.2826 32.6425L81.5407 40.1646C78.4467 38.6189 75.7739 37.8449 73.5247 37.8449C72.3621 37.8449 71.5162 38.0681 70.9879 38.5146C70.4584 38.9587 70.1943 39.5083 70.1943 40.1646C70.1943 40.8732 70.5298 41.5077 71.2019 42.067C71.8728 42.6239 73.6963 43.6418 76.6722 45.1195C79.5256 46.5172 81.5062 48.0192 82.6152 49.6231C83.7264 51.2245 84.2826 53.2422 84.2826 55.6747Z" fill="#003049"/>
<path d="M15.7041 96.4549L15.236 94.5185H12.1553L11.6783 96.4549H8.8606L11.9547 86.0889H15.3742L18.5084 96.4549H15.7041ZM14.7055 92.2328L14.2953 90.5391C14.1995 90.1606 14.0835 89.6741 13.9476 89.0784C13.8138 88.4802 13.7246 88.052 13.6801 87.7923C13.641 88.0325 13.5641 88.4268 13.4482 88.9764C13.3345 89.5273 13.0804 90.6119 12.6858 92.2328H14.7055Z" fill="#003049"/>
<path d="M24.6205 96.4548L24.2995 95.46H24.1524C23.9406 95.8264 23.6453 96.1078 23.2652 96.3044C22.8874 96.4985 22.4426 96.5956 21.9322 96.5956C21.123 96.5956 20.4943 96.3408 20.0463 95.8288C19.5971 95.318 19.3731 94.5961 19.3731 93.6644V88.4523H21.9054V92.8248C21.9054 93.3489 21.9734 93.7457 22.1105 94.0138C22.2465 94.2795 22.4716 94.4117 22.7837 94.4117C23.2206 94.4117 23.5305 94.2261 23.7155 93.8536C23.9027 93.4787 23.9964 92.8466 23.9964 91.9561V88.4523H26.5332V96.4548H24.6205Z" fill="#003049"/>
<path d="M31.8851 94.4118C32.2262 94.4118 32.6353 94.322 33.1112 94.14V96.1491C32.769 96.3117 32.4435 96.4257 32.1348 96.4937C31.8249 96.5616 31.4627 96.5956 31.047 96.5956C30.1965 96.5956 29.5824 96.3699 29.2057 95.9162C28.8278 95.46 28.6395 94.7612 28.6395 93.8197V90.5245H27.7523V89.3986L28.8802 88.53L29.5356 86.8508H31.1986V88.4523H32.9997V90.5245H31.1986V93.6353C31.1986 94.1533 31.427 94.4118 31.8851 94.4118Z" fill="#003049"/>
<path d="M41.4159 92.4365C41.4159 93.7468 41.0916 94.7684 40.444 95.4988C39.7987 96.2304 38.8936 96.5955 37.7289 96.5955C36.6143 96.5955 35.7271 96.2219 35.0673 95.4745C34.4074 94.7247 34.0775 93.7117 34.0775 92.4365C34.0775 91.1335 34.3996 90.1205 35.045 89.3986C35.6925 88.6743 36.6009 88.3115 37.769 88.3115C38.4913 88.3115 39.1288 88.4802 39.6816 88.8162C40.2367 89.1499 40.6647 89.6291 40.9656 90.2527C41.2655 90.8775 41.4159 91.6055 41.4159 92.4365ZM36.6544 92.4365C36.6544 93.1257 36.7369 93.6498 36.9041 94.0089C37.0735 94.368 37.3566 94.5476 37.7556 94.5476C38.1502 94.5476 38.4288 94.368 38.5893 94.0089C38.7521 93.6498 38.8346 93.1257 38.8346 92.4365C38.8346 91.7547 38.751 91.2403 38.5849 90.8933C38.421 90.5439 38.1402 90.3692 37.7423 90.3692C37.3522 90.3692 37.0735 90.5427 36.9041 90.8884C36.7369 91.2354 36.6544 91.7511 36.6544 92.4365Z" fill="#003049"/>
<path d="M52.6654 93.3198C52.6654 93.9604 52.5149 94.5306 52.2151 95.028C51.9175 95.523 51.4884 95.9088 50.9267 96.183C50.3649 96.4572 49.7051 96.5955 48.9472 96.5955C48.3163 96.5955 47.788 96.547 47.36 96.4499C46.932 96.3529 46.4862 96.1855 46.0225 95.9452V93.4605C46.5096 93.7323 47.0167 93.9458 47.5428 94.1011C48.0711 94.254 48.5571 94.3292 49.0007 94.3292C49.3807 94.3292 49.6583 94.2588 49.8344 94.1157C50.0127 93.9701 50.1019 93.7845 50.1019 93.5576C50.1019 93.4193 50.0662 93.2955 49.9949 93.1887C49.9235 93.082 49.8087 92.9752 49.6516 92.8685C49.4933 92.7593 49.0731 92.5372 48.3899 92.2036C47.7713 91.8966 47.3076 91.6006 46.9989 91.3155C46.689 91.028 46.4605 90.698 46.3123 90.3255C46.1629 89.9542 46.0894 89.5138 46.0894 89.0055C46.0894 88.0543 46.4059 87.3142 47.039 86.7828C47.6743 86.249 48.5481 85.9821 49.6605 85.9821C50.6436 85.9821 51.6456 86.2296 52.6654 86.7246L51.8807 88.8793C50.9947 88.4365 50.2289 88.2145 49.5847 88.2145C49.2514 88.2145 49.0096 88.2775 48.858 88.4037C48.7064 88.5299 48.6306 88.6888 48.6306 88.8793C48.6306 89.0807 48.7254 89.2615 48.916 89.4228C49.1088 89.5818 49.6315 89.873 50.4853 90.2964C51.3023 90.698 51.8696 91.1287 52.1884 91.5873C52.506 92.0471 52.6654 92.6246 52.6654 93.3198Z" fill="#003049"/>
<path d="M61.0025 92.4365C61.0025 93.7468 60.6782 94.7684 60.0306 95.4988C59.3853 96.2304 58.4802 96.5955 57.3155 96.5955C56.2009 96.5955 55.3137 96.2219 54.6539 95.4745C53.994 94.7247 53.6641 93.7117 53.6641 92.4365C53.6641 91.1335 53.9862 90.1205 54.6316 89.3986C55.2792 88.6743 56.1875 88.3115 57.3556 88.3115C58.0779 88.3115 58.7154 88.4802 59.2683 88.8162C59.8233 89.1499 60.2513 89.6291 60.5523 90.2527C60.8521 90.8775 61.0025 91.6055 61.0025 92.4365ZM56.241 92.4365C56.241 93.1257 56.3235 93.6498 56.4907 94.0089C56.6601 94.368 56.9432 94.5476 57.3423 94.5476C57.7368 94.5476 58.0155 94.368 58.176 94.0089C58.3387 93.6498 58.4212 93.1257 58.4212 92.4365C58.4212 91.7547 58.3376 91.2403 58.1715 90.8933C58.0077 90.5439 57.7268 90.3692 57.3289 90.3692C56.9388 90.3692 56.6601 90.5427 56.4907 90.8884C56.3235 91.2354 56.241 91.7511 56.241 92.4365Z" fill="#003049"/>
<path d="M65.7953 96.5955C64.5938 96.5955 63.6831 96.2437 63.0623 95.5376C62.4404 94.8327 62.1305 93.8184 62.1305 92.4948C62.1305 91.1651 62.4649 90.1362 63.1336 89.4083C63.8046 88.6779 64.7587 88.3115 65.9959 88.3115C66.8486 88.3115 67.6511 88.5141 68.4034 88.9181L67.6589 90.9612C67.3523 90.8157 67.0681 90.6992 66.8073 90.6118C66.5487 90.5245 66.2779 90.4808 65.9959 90.4808C65.5857 90.4808 65.267 90.6555 65.0418 91.0049C64.8189 91.3519 64.7074 91.8433 64.7074 92.4802C64.7074 93.7614 65.141 94.402 66.0093 94.402C66.7549 94.402 67.4683 94.1666 68.1493 93.6935V95.8919C67.4984 96.3614 66.7137 96.5955 65.7953 96.5955Z" fill="#003049"/>
<path d="M76.6312 92.4365C76.6312 93.7468 76.3069 94.7684 75.6593 95.4988C75.0139 96.2304 74.1089 96.5955 72.9442 96.5955C71.8296 96.5955 70.9424 96.2219 70.2825 95.4745C69.6227 94.7247 69.2928 93.7117 69.2928 92.4365C69.2928 91.1335 69.6149 90.1205 70.2602 89.3986C70.9078 88.6743 71.8162 88.3115 72.9843 88.3115C73.7065 88.3115 74.3441 88.4802 74.8969 88.8162C75.452 89.1499 75.88 89.6291 76.1809 90.2527C76.4807 90.8775 76.6312 91.6055 76.6312 92.4365ZM71.8697 92.4365C71.8697 93.1257 71.9522 93.6498 72.1194 94.0089C72.2888 94.368 72.5719 94.5476 72.9709 94.5476C73.3655 94.5476 73.6441 94.368 73.8046 94.0089C73.9673 93.6498 74.0498 93.1257 74.0498 92.4365C74.0498 91.7547 73.9662 91.2403 73.8002 90.8933C73.6363 90.5439 73.3554 90.3692 72.9575 90.3692C72.5674 90.3692 72.2888 90.5427 72.1194 90.8884C71.9522 91.2354 71.8697 91.7511 71.8697 92.4365Z" fill="#003049"/>
<path d="M82.5163 88.3115C82.7359 88.3115 82.9454 88.3309 83.1449 88.3698L83.2876 88.3989L83.0602 91.0049C82.8518 90.9467 82.5631 90.9176 82.1953 90.9176C81.6425 90.9176 81.239 91.0559 80.9871 91.3301C80.7374 91.6055 80.6126 92.0034 80.6126 92.5239V96.4548H78.0758V88.4523H79.9661L80.3629 89.7334H80.4833C80.6973 89.31 80.9927 88.9667 81.3705 88.7046C81.7472 88.4426 82.1295 88.3115 82.5163 88.3115Z" fill="#003049"/>
<path d="M88.7509 88.3115C88.9705 88.3115 89.18 88.3309 89.3795 88.3698L89.5222 88.3989L89.2948 91.0049C89.0864 90.9467 88.7977 90.9176 88.4299 90.9176C87.8771 90.9176 87.4736 91.0559 87.2217 91.3301C86.972 91.6055 86.8472 92.0034 86.8472 92.5239V96.4548H84.3104V88.4523H86.2007L86.5975 89.7334H86.7179C86.9319 89.31 87.2273 88.9667 87.6051 88.7046C87.9818 88.4426 88.3641 88.3115 88.7509 88.3115Z" fill="#003049"/>
<path d="M97.5671 92.4365C97.5671 93.7468 97.2427 94.7684 96.5952 95.4988C95.9498 96.2304 95.0448 96.5955 93.88 96.5955C92.7655 96.5955 91.8783 96.2219 91.2184 95.4745C90.5586 94.7247 90.2287 93.7117 90.2287 92.4365C90.2287 91.1335 90.5508 90.1205 91.1961 89.3986C91.8437 88.6743 92.7521 88.3115 93.9202 88.3115C94.6424 88.3115 95.28 88.4802 95.8328 88.8162C96.3879 89.1499 96.8159 89.6291 97.1168 90.2527C97.4166 90.8775 97.5671 91.6055 97.5671 92.4365ZM92.8056 92.4365C92.8056 93.1257 92.8881 93.6498 93.0553 94.0089C93.2247 94.368 93.5078 94.5476 93.9068 94.5476C94.3014 94.5476 94.58 94.368 94.7405 94.0089C94.9032 93.6498 94.9857 93.1257 94.9857 92.4365C94.9857 91.7547 94.9021 91.2403 94.736 90.8933C94.5722 90.5439 94.2913 90.3692 93.8934 90.3692C93.5033 90.3692 93.2247 90.5427 93.0553 90.8884C92.8881 91.2354 92.8056 91.7511 92.8056 92.4365Z" fill="#003049"/>
</svg>
