<svg width="60" height="60" viewBox="0 0 60 60" fill="none" xmlns="http://www.w3.org/2000/svg">
<path d="M17.277 29.2512V29.2581L11.4639 34.7712H17.2807L23.1014 29.2512H17.277Z" fill="#C1121F"/>
<path d="M24.218 29.2512V29.2581L18.4049 34.7712H24.2224L30.0424 29.2512H24.218Z" fill="#C1121F"/>
<path d="M31.313 29.2512V29.2581L25.4999 34.7712H31.3168L37.1374 29.2512H31.313Z" fill="#C1121F"/>
<path d="M38.2901 29.2512V29.2581L32.4769 34.7712H38.2944L44.1144 29.2512H38.2901Z" fill="#C1121F"/>
<path d="M19.7177 28.1501V12.0801H24.0577V24.6451H30.2452V28.1501H19.7177Z" fill="#003049"/>
<path d="M43.3258 23.2701C43.3258 24.267 43.0721 25.152 42.5658 25.9251C42.0608 26.6988 41.3314 27.2995 40.3783 27.7276C39.4264 28.1557 38.3089 28.3701 37.0258 28.3701C35.9571 28.3701 35.0596 28.2951 34.3333 28.1451C33.6083 27.9951 32.8539 27.7326 32.0708 27.3576V23.4901C32.8971 23.9151 33.7571 24.247 34.6508 24.4851C35.5458 24.7238 36.3671 24.8426 37.1158 24.8426C37.7608 24.8426 38.2333 24.7313 38.5333 24.5076C38.8333 24.2826 38.9833 23.9945 38.9833 23.6426C38.9833 23.4245 38.9221 23.2326 38.8008 23.0676C38.6808 22.9026 38.4864 22.7363 38.2183 22.5676C37.9514 22.3976 37.2389 22.0526 36.0808 21.5326C35.0339 21.0576 34.2483 20.597 33.7233 20.1501C33.1996 19.702 32.8114 19.1888 32.5583 18.6101C32.3064 18.032 32.1808 17.347 32.1808 16.5551C32.1808 15.0751 32.7189 13.9213 33.7958 13.0926C34.8721 12.2645 36.3521 11.8501 38.2358 11.8501C39.8989 11.8501 41.5958 12.2351 43.3258 13.0051L41.9958 16.3576C40.4921 15.6676 39.1946 15.3226 38.1033 15.3226C37.5396 15.3226 37.1296 15.422 36.8733 15.6201C36.6164 15.8188 36.4883 16.0645 36.4883 16.3576C36.4883 16.6726 36.6508 16.9551 36.9758 17.2051C37.3021 17.4538 38.1871 17.907 39.6308 18.5651C41.0158 19.1888 41.9771 19.8576 42.5158 20.5726C43.0558 21.2863 43.3258 22.1851 43.3258 23.2701Z" fill="#003049"/>
<path d="M11.6667 42.7802L11.4392 41.9177H9.94424L9.71174 42.7802H8.34424L9.84674 38.1577H11.5042L13.0267 42.7802H11.6667ZM11.1817 40.8977L10.9817 40.1427C10.9367 39.9746 10.8805 39.7571 10.8142 39.4902C10.7474 39.224 10.7042 39.0327 10.6842 38.9177C10.6642 39.0246 10.6267 39.2015 10.5717 39.4477C10.5167 39.6927 10.393 40.1765 10.2017 40.8977H11.1817Z" fill="#003049"/>
<path d="M15.9894 42.7801L15.8369 42.3351H15.7644C15.6606 42.5001 15.5169 42.6264 15.3319 42.7126C15.1481 42.7989 14.9331 42.8426 14.6869 42.8426C14.2931 42.8426 13.9875 42.7295 13.7694 42.5026C13.5506 42.2745 13.4419 41.9526 13.4419 41.5376V39.2126H14.6744V41.1626C14.6744 41.3964 14.7069 41.5726 14.7719 41.6926C14.8381 41.8114 14.9475 41.8701 15.0994 41.8701C15.3106 41.8701 15.4619 41.787 15.5519 41.6201C15.6419 41.4539 15.6869 41.172 15.6869 40.7751V39.2126H16.9194V42.7801H15.9894Z" fill="#003049"/>
<path d="M19.5149 41.8698C19.6799 41.8698 19.878 41.8292 20.1099 41.7473V42.6448C19.943 42.7167 19.7849 42.7673 19.6349 42.7973C19.4849 42.8273 19.3086 42.8423 19.1074 42.8423C18.6936 42.8423 18.3955 42.7417 18.2124 42.5398C18.0305 42.3367 17.9399 42.0248 17.9399 41.6048V40.1348H17.5099V39.6348L18.0574 39.2473L18.3749 38.4973H19.1799V39.2123H20.0549V40.1348H19.1799V41.5248C19.1799 41.7548 19.2911 41.8698 19.5149 41.8698Z" fill="#003049"/>
<path d="M24.1396 40.9881C24.1396 41.5731 23.9821 42.0294 23.6671 42.3556C23.3534 42.6806 22.9146 42.8431 22.3496 42.8431C21.8078 42.8431 21.3771 42.6769 21.0571 42.3431C20.7371 42.01 20.5771 41.5581 20.5771 40.9881C20.5771 40.4081 20.7334 39.9575 21.0471 39.6356C21.3621 39.3125 21.8028 39.1506 22.3696 39.1506C22.7196 39.1506 23.0284 39.2256 23.2971 39.3756C23.5671 39.5244 23.7746 39.7375 23.9196 40.0156C24.0659 40.2944 24.1396 40.6181 24.1396 40.9881ZM21.8271 40.9881C21.8271 41.295 21.8678 41.5294 21.9496 41.6906C22.0309 41.8506 22.1684 41.9306 22.3621 41.9306C22.5534 41.9306 22.6884 41.8506 22.7671 41.6906C22.8453 41.5294 22.8846 41.295 22.8846 40.9881C22.8846 40.685 22.8446 40.4556 22.7646 40.3006C22.6859 40.1456 22.5503 40.0681 22.3571 40.0681C22.1671 40.0681 22.0309 40.1456 21.9496 40.3006C21.8678 40.4544 21.8271 40.6831 21.8271 40.9881Z" fill="#003049"/>
<path d="M29.5966 41.3831C29.5966 41.6681 29.5241 41.9218 29.3791 42.1431C29.2341 42.365 29.0247 42.5375 28.7516 42.6606C28.4797 42.7818 28.1597 42.8431 27.7916 42.8431C27.4847 42.8431 27.2272 42.8218 27.0191 42.7806C26.8122 42.7375 26.5966 42.6618 26.3716 42.5531V41.4456C26.6097 41.5675 26.8566 41.6625 27.1116 41.7306C27.3678 41.7993 27.6028 41.8331 27.8166 41.8331C28.0016 41.8331 28.1366 41.8018 28.2216 41.7381C28.3078 41.6731 28.3516 41.5906 28.3516 41.4906C28.3516 41.4275 28.3341 41.3725 28.2991 41.3256C28.2653 41.2775 28.2103 41.2293 28.1341 41.1806C28.0572 41.1325 27.8528 41.0343 27.5216 40.8856C27.2216 40.7493 26.9966 40.6168 26.8466 40.4881C26.6966 40.36 26.5847 40.2131 26.5116 40.0481C26.4397 39.8818 26.4041 39.685 26.4041 39.4581C26.4041 39.035 26.5578 38.705 26.8666 38.4681C27.1747 38.23 27.5991 38.1106 28.1391 38.1106C28.6153 38.1106 29.1016 38.2218 29.5966 38.4431L29.2141 39.4031C28.7841 39.205 28.4128 39.1056 28.1016 39.1056C27.9397 39.1056 27.8222 39.1343 27.7491 39.1906C27.6753 39.2475 27.6391 39.3181 27.6391 39.4031C27.6391 39.4931 27.6853 39.5743 27.7791 39.6456C27.8722 39.7175 28.1253 39.8475 28.5391 40.0356C28.9353 40.2143 29.2103 40.4056 29.3641 40.6106C29.5191 40.8156 29.5966 41.0731 29.5966 41.3831Z" fill="#003049"/>
<path d="M33.642 40.9881C33.642 41.5731 33.4845 42.0294 33.1695 42.3556C32.8557 42.6806 32.417 42.8431 31.852 42.8431C31.3101 42.8431 30.8795 42.6769 30.5595 42.3431C30.2395 42.01 30.0795 41.5581 30.0795 40.9881C30.0795 40.4081 30.2357 39.9575 30.5495 39.6356C30.8645 39.3125 31.3051 39.1506 31.872 39.1506C32.222 39.1506 32.5307 39.2256 32.7995 39.3756C33.0695 39.5244 33.277 39.7375 33.422 40.0156C33.5682 40.2944 33.642 40.6181 33.642 40.9881ZM31.3295 40.9881C31.3295 41.295 31.3701 41.5294 31.452 41.6906C31.5332 41.8506 31.6707 41.9306 31.8645 41.9306C32.0557 41.9306 32.1907 41.8506 32.2695 41.6906C32.3476 41.5294 32.387 41.295 32.387 40.9881C32.387 40.685 32.347 40.4556 32.267 40.3006C32.1882 40.1456 32.0526 40.0681 31.8595 40.0681C31.6695 40.0681 31.5332 40.1456 31.452 40.3006C31.3701 40.4544 31.3295 40.6831 31.3295 40.9881Z" fill="#003049"/>
<path d="M35.9665 42.8431C35.3828 42.8431 34.9403 42.6856 34.639 42.3706C34.3371 42.0556 34.1865 41.6044 34.1865 41.0156C34.1865 40.4225 34.349 39.9631 34.674 39.6381C35.0003 39.3131 35.464 39.1506 36.064 39.1506C36.4771 39.1506 36.8665 39.2406 37.2315 39.4206L36.869 40.3306C36.7203 40.2656 36.5828 40.2144 36.4565 40.1756C36.3315 40.1375 36.2003 40.1181 36.064 40.1181C35.864 40.1181 35.709 40.1956 35.599 40.3506C35.4903 40.5056 35.4365 40.725 35.4365 41.0081C35.4365 41.58 35.6471 41.8656 36.069 41.8656C36.4303 41.8656 36.7771 41.7606 37.109 41.5506V42.5281C36.7921 42.7381 36.4115 42.8431 35.9665 42.8431Z" fill="#003049"/>
<path d="M41.2236 40.9881C41.2236 41.5731 41.0661 42.0294 40.7511 42.3556C40.4374 42.6806 39.9986 42.8431 39.4336 42.8431C38.8918 42.8431 38.4611 42.6769 38.1411 42.3431C37.8211 42.01 37.6611 41.5581 37.6611 40.9881C37.6611 40.4081 37.8174 39.9575 38.1311 39.6356C38.4461 39.3125 38.8868 39.1506 39.4536 39.1506C39.8036 39.1506 40.1124 39.2256 40.3811 39.3756C40.6511 39.5244 40.8586 39.7375 41.0036 40.0156C41.1499 40.2944 41.2236 40.6181 41.2236 40.9881ZM38.9111 40.9881C38.9111 41.295 38.9518 41.5294 39.0336 41.6906C39.1149 41.8506 39.2524 41.9306 39.4461 41.9306C39.6374 41.9306 39.7724 41.8506 39.8511 41.6906C39.9293 41.5294 39.9686 41.295 39.9686 40.9881C39.9686 40.685 39.9286 40.4556 39.8486 40.3006C39.7699 40.1456 39.6343 40.0681 39.4411 40.0681C39.2511 40.0681 39.1149 40.1456 39.0336 40.3006C38.9518 40.4544 38.9111 40.6831 38.9111 40.9881Z" fill="#003049"/>
<path d="M44.0757 39.1506C44.1838 39.1506 44.2857 39.1594 44.3807 39.1756L44.4507 39.1881L44.3407 40.3506C44.2407 40.3256 44.1013 40.3131 43.9232 40.3131C43.6532 40.3131 43.457 40.375 43.3357 40.4981C43.2138 40.62 43.1532 40.7969 43.1532 41.0281V42.7806H41.9232V39.2131H42.8382L43.0307 39.7831H43.0907C43.1938 39.595 43.337 39.4425 43.5207 39.3256C43.7038 39.2094 43.8888 39.1506 44.0757 39.1506Z" fill="#003049"/>
<path d="M47.1006 39.1506C47.2087 39.1506 47.3106 39.1594 47.4056 39.1756L47.4756 39.1881L47.3656 40.3506C47.2656 40.3256 47.1262 40.3131 46.9481 40.3131C46.6781 40.3131 46.4819 40.375 46.3606 40.4981C46.2387 40.62 46.1781 40.7969 46.1781 41.0281V42.7806H44.9481V39.2131H45.8631L46.0556 39.7831H46.1156C46.2187 39.595 46.3619 39.4425 46.5456 39.3256C46.7287 39.2094 46.9137 39.1506 47.1006 39.1506Z" fill="#003049"/>
<path d="M51.38 40.9881C51.38 41.5731 51.2225 42.0294 50.9075 42.3556C50.5938 42.6806 50.155 42.8431 49.59 42.8431C49.0481 42.8431 48.6175 42.6769 48.2975 42.3431C47.9775 42.01 47.8175 41.5581 47.8175 40.9881C47.8175 40.4081 47.9738 39.9575 48.2875 39.6356C48.6025 39.3125 49.0431 39.1506 49.61 39.1506C49.96 39.1506 50.2688 39.2256 50.5375 39.3756C50.8075 39.5244 51.015 39.7375 51.16 40.0156C51.3063 40.2944 51.38 40.6181 51.38 40.9881ZM49.0675 40.9881C49.0675 41.295 49.1081 41.5294 49.19 41.6906C49.2713 41.8506 49.4088 41.9306 49.6025 41.9306C49.7938 41.9306 49.9288 41.8506 50.0075 41.6906C50.0856 41.5294 50.125 41.295 50.125 40.9881C50.125 40.685 50.085 40.4556 50.005 40.3006C49.9263 40.1456 49.7906 40.0681 49.5975 40.0681C49.4075 40.0681 49.2713 40.1456 49.19 40.3006C49.1081 40.4544 49.0675 40.6831 49.0675 40.9881Z" fill="#003049"/>
<path d="M11.7664 48.8026L11.4539 48.4826C11.2651 48.6014 11.1101 48.6826 10.9889 48.7276C10.8689 48.7726 10.7339 48.8064 10.5839 48.8301C10.4339 48.8533 10.262 48.8651 10.0689 48.8651C9.73699 48.8651 9.44387 48.8083 9.18887 48.6951C8.93387 48.582 8.73887 48.4239 8.60387 48.2201C8.46887 48.017 8.40137 47.7851 8.40137 47.5251C8.40137 46.9751 8.68637 46.5545 9.25637 46.2626C9.12637 46.1164 9.02449 45.9601 8.95137 45.7951C8.87949 45.6301 8.84387 45.4439 8.84387 45.2351C8.84387 44.9001 8.97262 44.6345 9.23137 44.4376C9.49137 44.2395 9.84762 44.1401 10.3014 44.1401C10.7445 44.1401 11.0895 44.2389 11.3364 44.4351C11.5826 44.6301 11.7064 44.897 11.7064 45.2351C11.7064 45.4689 11.6395 45.6845 11.5064 45.8826C11.3726 46.0814 11.162 46.2676 10.8739 46.4426L11.5014 47.0376C11.6595 46.7964 11.7689 46.5226 11.8289 46.2176H13.1064C13.0445 46.5076 12.9451 46.7989 12.8089 47.0901C12.6739 47.3801 12.5214 47.6289 12.3514 47.8351L13.3589 48.8026H11.7664ZM9.66887 47.4351C9.66887 47.5689 9.71512 47.6776 9.80887 47.7626C9.90387 47.8464 10.0295 47.8876 10.1864 47.8876C10.3045 47.8876 10.4089 47.872 10.4989 47.8401C10.5901 47.8089 10.6601 47.7726 10.7089 47.7326L9.92637 46.9401C9.75449 47.067 9.66887 47.232 9.66887 47.4351ZM10.5989 45.2351C10.5989 45.1339 10.5689 45.0601 10.5089 45.0151C10.4489 44.9689 10.3739 44.9451 10.2839 44.9451C10.1951 44.9451 10.1176 44.972 10.0514 45.0251C9.98449 45.077 9.95137 45.1614 9.95137 45.2776C9.95137 45.4345 10.0439 45.597 10.2289 45.7651C10.3489 45.6989 10.4401 45.6189 10.5039 45.5251C10.567 45.4301 10.5989 45.3339 10.5989 45.2351Z" fill="#003049"/>
<path d="M17.5248 48.8022H16.2823V45.2172H15.1573V44.1997H18.6473V45.2172H17.5248V48.8022Z" fill="#003049"/>
<path d="M21.3832 45.1726C21.4913 45.1726 21.5932 45.1814 21.6882 45.1976L21.7582 45.2101L21.6482 46.3726C21.5482 46.3476 21.4088 46.3351 21.2307 46.3351C20.9607 46.3351 20.7645 46.397 20.6432 46.5201C20.5213 46.642 20.4607 46.8189 20.4607 47.0501V48.8026H19.2307V45.2351H20.1457L20.3382 45.8051H20.3982C20.5013 45.617 20.6445 45.4645 20.8282 45.3476C21.0113 45.2314 21.1963 45.1726 21.3832 45.1726Z" fill="#003049"/>
<path d="M24.5827 48.8026L24.3452 48.3301H24.3202C24.1552 48.537 23.9859 48.6776 23.8127 48.7526C23.6409 48.8276 23.4184 48.8651 23.1452 48.8651C22.8102 48.8651 22.5459 48.7645 22.3527 48.5626C22.159 48.3614 22.0627 48.0776 22.0627 47.7126C22.0627 47.3326 22.1952 47.0501 22.4602 46.8651C22.7252 46.6789 23.1077 46.5745 23.6077 46.5526L24.2027 46.5326V46.4826C24.2027 46.1895 24.0584 46.0426 23.7702 46.0426C23.5102 46.0426 23.179 46.1301 22.7777 46.3051L22.4227 45.4926C22.8377 45.2795 23.3615 45.1726 23.9952 45.1726C24.4534 45.1726 24.8077 45.2864 25.0577 45.5126C25.309 45.7395 25.4352 46.0564 25.4352 46.4626V48.8026H24.5827ZM23.6677 47.9976C23.8177 47.9976 23.9452 47.9501 24.0502 47.8551C24.1565 47.7601 24.2102 47.6376 24.2102 47.4876V47.2101L23.9277 47.2226C23.5227 47.2376 23.3202 47.387 23.3202 47.6701C23.3202 47.8889 23.4359 47.9976 23.6677 47.9976Z" fill="#003049"/>
<path d="M28.5214 48.8026V46.8576C28.5214 46.6195 28.487 46.4401 28.4189 46.3201C28.352 46.2001 28.2426 46.1401 28.0914 46.1401C27.8826 46.1401 27.732 46.2239 27.6389 46.3901C27.547 46.5551 27.5014 46.8389 27.5014 47.2401V48.8026H26.2714V45.2351H27.1989L27.3539 45.6776H27.4264C27.5314 45.5095 27.6764 45.3839 27.8614 45.3001C28.0476 45.2151 28.262 45.1726 28.5039 45.1726C28.8989 45.1726 29.2051 45.2876 29.4239 45.5176C29.6439 45.7464 29.7539 46.0676 29.7539 46.4826V48.8026H28.5214Z" fill="#003049"/>
<path d="M33.3444 47.7076C33.3444 48.0895 33.2144 48.3776 32.9544 48.5726C32.6944 48.7676 32.3201 48.8651 31.8319 48.8651C31.5682 48.8651 31.3394 48.8507 31.1444 48.8226C30.9494 48.7945 30.7494 48.7426 30.5444 48.6676V47.6826C30.7357 47.7664 30.9451 47.8351 31.1719 47.8901C31.4001 47.9451 31.6032 47.9726 31.7819 47.9726C32.0482 47.9726 32.1819 47.912 32.1819 47.7901C32.1819 47.727 32.1444 47.6714 32.0694 47.6226C31.9957 47.5726 31.7794 47.4764 31.4194 47.3326C31.0926 47.1976 30.8644 47.0451 30.7344 46.8751C30.6044 46.7039 30.5394 46.487 30.5394 46.2251C30.5394 45.8939 30.6669 45.6351 30.9219 45.4501C31.1782 45.2651 31.5407 45.1726 32.0094 45.1726C32.2444 45.1726 32.4651 45.1989 32.6719 45.2501C32.8782 45.302 33.0932 45.377 33.3169 45.4751L32.9819 46.2676C32.8182 46.1945 32.6451 46.1326 32.4619 46.0826C32.2801 46.0314 32.1307 46.0051 32.0144 46.0051C31.8144 46.0051 31.7144 46.0545 31.7144 46.1526C31.7144 46.2126 31.7494 46.2645 31.8194 46.3076C31.8894 46.3514 32.0919 46.4389 32.4269 46.5701C32.6769 46.6739 32.8632 46.7745 32.9869 46.8726C33.1101 46.9714 33.2001 47.087 33.2569 47.2201C33.3151 47.3539 33.3444 47.5164 33.3444 47.7076Z" fill="#003049"/>
<path d="M36.1664 48.8651C35.9864 48.8651 35.8245 48.8351 35.6814 48.7751C35.5395 48.7151 35.3976 48.6076 35.2564 48.4526H35.2014C35.2376 48.7026 35.2564 48.8582 35.2564 48.9201V50.3526H34.0264V45.2351H35.0264L35.2014 45.6901H35.2564C35.4864 45.3451 35.802 45.1726 36.2039 45.1726C36.5989 45.1726 36.9089 45.337 37.1339 45.6651C37.3589 45.992 37.4714 46.4401 37.4714 47.0101C37.4714 47.587 37.3539 48.0401 37.1189 48.3701C36.8851 48.7001 36.5676 48.8651 36.1664 48.8651ZM35.7539 46.1401C35.5739 46.1401 35.447 46.2051 35.3739 46.3351C35.302 46.4639 35.2626 46.6545 35.2564 46.9076V47.0051C35.2564 47.312 35.297 47.5339 35.3789 47.6701C35.462 47.807 35.5914 47.8751 35.7664 47.8751C35.9245 47.8751 36.0389 47.8076 36.1089 47.6726C36.1801 47.5364 36.2164 47.3114 36.2164 46.9976C36.2164 46.6926 36.1801 46.4739 36.1089 46.3401C36.0389 46.207 35.9201 46.1401 35.7539 46.1401Z" fill="#003049"/>
<path d="M41.579 47.0101C41.579 47.5951 41.4215 48.0514 41.1065 48.3776C40.7927 48.7026 40.354 48.8651 39.789 48.8651C39.2471 48.8651 38.8165 48.6989 38.4965 48.3651C38.1765 48.032 38.0165 47.5801 38.0165 47.0101C38.0165 46.4301 38.1727 45.9795 38.4865 45.6576C38.8015 45.3345 39.2421 45.1726 39.809 45.1726C40.159 45.1726 40.4677 45.2476 40.7365 45.3976C41.0065 45.5464 41.214 45.7595 41.359 46.0376C41.5052 46.3164 41.579 46.6401 41.579 47.0101ZM39.2665 47.0101C39.2665 47.317 39.3071 47.5514 39.389 47.7126C39.4702 47.8726 39.6077 47.9526 39.8015 47.9526C39.9927 47.9526 40.1277 47.8726 40.2065 47.7126C40.2846 47.5514 40.324 47.317 40.324 47.0101C40.324 46.707 40.284 46.4776 40.204 46.3226C40.1252 46.1676 39.9896 46.0901 39.7965 46.0901C39.6065 46.0901 39.4702 46.1676 39.389 46.3226C39.3071 46.4764 39.2665 46.7051 39.2665 47.0101Z" fill="#003049"/>
<path d="M44.4312 45.1726C44.5393 45.1726 44.6412 45.1814 44.7362 45.1976L44.8062 45.2101L44.6962 46.3726C44.5962 46.3476 44.4568 46.3351 44.2787 46.3351C44.0087 46.3351 43.8124 46.397 43.6912 46.5201C43.5693 46.642 43.5087 46.8189 43.5087 47.0501V48.8026H42.2787V45.2351H43.1937L43.3862 45.8051H43.4462C43.5493 45.617 43.6924 45.4645 43.8762 45.3476C44.0593 45.2314 44.2443 45.1726 44.4312 45.1726Z" fill="#003049"/>
<path d="M47.0507 47.8925C47.2157 47.8925 47.4138 47.8519 47.6457 47.77V48.6675C47.4788 48.7394 47.3207 48.79 47.1707 48.82C47.0207 48.85 46.8444 48.865 46.6432 48.865C46.2294 48.865 45.9313 48.7644 45.7482 48.5625C45.5663 48.3594 45.4757 48.0475 45.4757 47.6275V46.1575H45.0457V45.6575L45.5932 45.27L45.9107 44.52H46.7157V45.235H47.5907V46.1575H46.7157V47.5475C46.7157 47.7775 46.8269 47.8925 47.0507 47.8925Z" fill="#003049"/>
<path d="M49.9905 48.8651C49.3955 48.8651 48.9337 48.7076 48.6055 48.3926C48.2768 48.0764 48.113 47.6264 48.113 47.0426C48.113 46.4414 48.2643 45.9795 48.568 45.6576C48.873 45.3345 49.308 45.1726 49.873 45.1726C50.4112 45.1726 50.8262 45.3126 51.118 45.5926C51.4112 45.8726 51.558 46.2764 51.558 46.8026V47.3501H49.358C49.3662 47.5501 49.4387 47.707 49.5755 47.8201C49.7137 47.9339 49.9012 47.9901 50.138 47.9901C50.3543 47.9901 50.5537 47.9701 50.7355 47.9301C50.9168 47.8889 51.1137 47.8189 51.3255 47.7201V48.6051C51.1318 48.7039 50.9318 48.7714 50.7255 48.8076C50.5205 48.8457 50.2755 48.8651 49.9905 48.8651ZM49.918 46.0101C49.773 46.0101 49.6512 46.0564 49.553 46.1476C49.4562 46.2395 49.3993 46.3826 49.383 46.5776H50.4405C50.4355 46.4045 50.3862 46.267 50.293 46.1651C50.1993 46.062 50.0743 46.0101 49.918 46.0101Z" fill="#003049"/>
</svg>
