<svg width="24" height="28" viewBox="0 0 24 28" fill="none" xmlns="http://www.w3.org/2000/svg">
<path d="M20.4054 5.20179C18.1607 2.95179 15.1714 1.71429 11.9946 1.71429C5.4375 1.71429 0.101786 7.05001 0.101786 13.6072C0.101786 15.7018 0.648214 17.7482 1.6875 19.5536L0 25.7143L6.30536 24.0589C8.04107 25.0072 9.99643 25.5054 11.9893 25.5054H11.9946C18.5464 25.5054 24 20.1697 24 13.6125C24 10.4357 22.65 7.45179 20.4054 5.20179ZM11.9946 23.5018C10.2161 23.5018 8.475 23.025 6.95893 22.125L6.6 21.9107L2.86071 22.8911L3.85714 19.2429L3.62143 18.8679C2.63036 17.2929 2.11071 15.4768 2.11071 13.6072C2.11071 8.15894 6.54643 3.72322 12 3.72322C14.6411 3.72322 17.1214 4.75179 18.9857 6.62144C20.85 8.49108 21.9964 10.9714 21.9911 13.6125C21.9911 19.0661 17.4429 23.5018 11.9946 23.5018ZM17.4161 16.0982C17.1214 15.9482 15.6589 15.2304 15.3857 15.1339C15.1125 15.0322 14.9143 14.9839 14.7161 15.2839C14.5179 15.5839 13.95 16.2482 13.7732 16.4518C13.6018 16.65 13.425 16.6768 13.1304 16.5268C11.3839 15.6536 10.2375 14.9679 9.08571 12.9911C8.78036 12.4661 9.39107 12.5036 9.95893 11.3679C10.0554 11.1697 10.0071 10.9982 9.93214 10.8482C9.85714 10.6982 9.2625 9.23572 9.01607 8.64108C8.775 8.06251 8.52857 8.14287 8.34643 8.13215C8.175 8.12144 7.97679 8.12144 7.77857 8.12144C7.58036 8.12144 7.25893 8.19644 6.98571 8.49108C6.7125 8.79108 5.94643 9.50894 5.94643 10.9714C5.94643 12.4339 7.0125 13.8482 7.15714 14.0464C7.30714 14.2447 9.25179 17.2447 12.2357 18.5357C14.1214 19.35 14.8607 19.4197 15.8036 19.2804C16.3768 19.1947 17.5607 18.5625 17.8071 17.8661C18.0536 17.1697 18.0536 16.575 17.9786 16.4518C17.9089 16.3179 17.7107 16.2429 17.4161 16.0982Z" fill="#FDF0D5"/>
</svg>
